<?xml version="1.0" encoding="UTF-8"?>
<svg version="1.1" xmlns="http://www.w3.org/2000/svg" width="1024" height="1024">
<path d="M0 0 C1.68360537 1.31749211 3.37104161 2.63010526 5.0625 3.9375 C6.375 4.95833333 7.6875 5.97916667 9 7 C7.45427224 10.81628832 5.11228755 12.97025743 2.0625 15.6875 C1.33268921 16.33996704 1.33268921 16.33996704 0.58813477 17.00561523 C-3.60486099 20.72380497 -7.94233764 24.25621525 -12.3046875 27.7734375 C-15.00679316 30.00561174 -17.60117429 32.32263337 -20.1875 34.6875 C-23.68307249 37.87790346 -27.24194625 40.7947735 -31.11328125 43.515625 C-33.13749838 45.04784431 -33.13749838 45.04784431 -35.26953125 47.26953125 C-38.50038814 50.50038814 -41.9097699 53.46282959 -45.375 56.4375 C-46.00921875 56.98470703 -46.6434375 57.53191406 -47.296875 58.09570312 C-48.56408773 59.18835084 -49.83326982 60.27871907 -51.10449219 61.36669922 C-52.40032685 62.48328009 -53.68708544 63.61045817 -54.96582031 64.74658203 C-55.58811523 65.29556152 -56.21041016 65.84454102 -56.8515625 66.41015625 C-57.40924316 66.90781494 -57.96692383 67.40547363 -58.54150391 67.91821289 C-60 69 -60 69 -62 69 C-62 69.66 -62 70.32 -62 71 C-63.46690559 72.3327188 -65.00322501 73.58913869 -66.5625 74.8125 C-71.21187467 78.53319036 -75.7602082 82.33832814 -80.25 86.25 C-81.19951538 87.07624878 -81.19951538 87.07624878 -82.16821289 87.91918945 C-83.46603248 89.04921147 -84.76347515 90.17966652 -86.06054688 91.31054688 C-89.20156157 94.0466775 -92.35108354 96.77297161 -95.5 99.5 C-99.26291483 102.76034215 -103.02515805 106.02145067 -106.78515625 109.28515625 C-129.62446769 129.1059526 -129.62446769 129.1059526 -137.6875 135.625 C-142.43478185 139.47867585 -146.95806043 143.53683859 -151.4609375 147.671875 C-158.85015264 154.44721688 -166.53248025 160.89805947 -174.14892578 167.41503906 C-175.95341852 168.96011515 -177.75631496 170.50702979 -179.55859375 172.0546875 C-184.72185882 176.48731539 -189.88968369 180.91305707 -195.09594727 185.29516602 C-199.50243881 189.00442377 -203.86440073 192.74745145 -208.125 196.625 C-212.38466118 200.49867246 -216.80594797 204.12953094 -221.28125 207.75 C-223.92147729 209.93501569 -226.4672972 212.19171391 -229 214.5 C-233.30907606 218.42665409 -237.77349034 222.11498222 -242.3046875 225.78125 C-246.30498692 229.0742501 -250.16109003 232.52128406 -254 236 C-252.86130435 239.41608695 -252.12771801 239.91850794 -249.3125 242 C-248.49394531 242.61746094 -247.67539062 243.23492188 -246.83203125 243.87109375 C-245.89746094 244.57363281 -244.96289062 245.27617188 -244 246 C-241.82814968 247.6813446 -239.66096529 249.36730745 -237.5 251.0625 C-236.9126709 251.52261475 -236.3253418 251.98272949 -235.72021484 252.45678711 C-230.8982812 256.25257338 -226.16220007 260.14670418 -221.4375 264.0625 C-215.48708222 268.99339649 -209.45590122 273.76670855 -203.3046875 278.4453125 C-198.79515085 281.90216704 -194.41351319 285.51679618 -190.01367188 289.11132812 C-185.12536553 293.09977367 -180.18921358 297.02035199 -175.21899414 300.90600586 C-170.31913456 304.73938049 -165.46091642 308.62300705 -160.60961914 312.51757812 C-156.96915629 315.43636748 -153.30914511 318.32743021 -149.62866211 321.19555664 C-143.9124118 325.65125558 -138.33214566 330.22617354 -132.828125 334.94116211 C-128.57094174 338.56714803 -124.18360743 341.99079221 -119.73193359 345.37353516 C-115.35468347 348.70499883 -111.1016796 352.16745441 -106.859375 355.66796875 C-103.70881196 358.23748533 -100.51650423 360.74775281 -97.3125 363.25 C-92.16044025 367.27595755 -87.06546879 371.36567011 -82 375.5 C-77.03764684 379.54978432 -72.04846076 383.55805119 -67 387.5 C-61.25989332 391.9820011 -55.60306754 396.55956557 -49.9609375 401.1640625 C-45.67548382 404.65530083 -41.35670547 408.09818888 -37 411.5 C-31.95153312 415.44195359 -26.9625706 419.45047577 -22 423.5 C-16.84251951 427.70530147 -11.66530185 431.88232726 -6.4375 436 C-5.89029297 436.43248047 -5.34308594 436.86496094 -4.77929688 437.31054688 C-0.93412638 440.32738199 3.00768203 443.18070862 7 446 C5.56109292 453.23230198 -2.38226179 457.16987092 -8.12890625 461.1875 C-26.42924184 473.04342293 -45.83163047 476.06167443 -67 472 C-82.49599803 468.44960427 -95.38278714 459.41785287 -107.69433594 449.79785156 C-111.24872452 447.02630163 -114.82718493 444.28648606 -118.40771484 441.54882812 C-120.27324155 440.12204151 -122.13565908 438.69117854 -123.99462891 437.25585938 C-124.84718262 436.60166016 -125.69973633 435.94746094 -126.578125 435.2734375 C-127.33512695 434.68997559 -128.09212891 434.10651367 -128.87207031 433.50537109 C-130.8544697 432.10295317 -132.79900714 431.01569897 -135 430 C-135 429.34 -135 428.68 -135 428 C-135.72832031 427.74863281 -136.45664062 427.49726562 -137.20703125 427.23828125 C-140.22865861 425.89862269 -142.19508395 424.35080475 -144.6875 422.1875 C-149.51490012 418.13766769 -154.4960817 414.40905538 -159.625 410.75 C-167.15372655 405.36884802 -174.5301776 399.81949922 -181.86328125 394.17578125 C-185.82374383 391.12834558 -189.81182166 388.11937581 -193.8125 385.125 C-194.46210693 384.63862061 -195.11171387 384.15224121 -195.78100586 383.65112305 C-197.85356857 382.10016578 -199.92673001 380.55001165 -202 379 C-212.388421 371.23176474 -222.7549857 363.43790419 -233.0625 355.5625 C-239.09227071 350.95656133 -245.13975801 346.3906842 -251.30078125 341.9609375 C-254.72935563 339.47013527 -258.11413948 336.92341779 -261.5 334.375 C-270.6179239 327.51694395 -279.80775591 320.75792716 -289 314 C-299.36602445 306.37625652 -309.72430675 298.74523967 -320 291 C-321.33306352 289.99964036 -322.66629543 288.99950482 -324 288 C-326.64398662 289.26575751 -329.04867577 290.63675287 -331.44140625 292.328125 C-332.42548462 293.02216431 -332.42548462 293.02216431 -333.42944336 293.73022461 C-334.13335205 294.23175049 -334.83726074 294.73327637 -335.5625 295.25 C-336.67927124 296.04192749 -336.67927124 296.04192749 -337.81860352 296.84985352 C-344.20997093 301.39971942 -350.52843785 306.04599582 -356.83569336 310.71142578 C-370.7516238 321.00307721 -384.83786608 331.05065275 -399 341 C-397.59193544 344.95822592 -395.6615726 348.45218463 -393.57299805 352.07641602 C-371.79960368 389.90562952 -366.91317333 433.78626701 -377.94750977 475.89208984 C-384.76827634 500.50625838 -397.13849833 521.18014128 -413 541 C-413.7425 541.9384375 -414.485 542.876875 -415.25 543.84375 C-437.13274794 570.80642157 -470.60521007 589.23796775 -504 597 C-504.66128906 597.16371094 -505.32257813 597.32742188 -506.00390625 597.49609375 C-538.96678335 605.42553337 -573.90777534 599.07869403 -604.86303711 586.87939453 C-607.73975969 585.75876576 -609.88115606 585 -613 585 C-614 584 -614 584 -615 581 C-616.64623996 580.28437703 -618.31923769 579.63028587 -620 579 C-630.01607253 573.61492193 -639.02543664 566.98614177 -647.453125 559.39111328 C-649.00736429 557.99337725 -650.58002567 556.61895003 -652.15625 555.24609375 C-658.82654443 549.36896139 -664.5861391 543.06370537 -670 536 C-670.72703125 535.08863281 -671.4540625 534.17726563 -672.203125 533.23828125 C-682.68378729 519.80764233 -692.05730668 504.49489304 -696.32421875 487.8984375 C-696.82458128 485.7991018 -696.82458128 485.7991018 -699 485 C-699.55810547 483.04223633 -699.55810547 483.04223633 -699.9921875 480.51953125 C-700.60078066 477.15440412 -701.25810929 473.83349722 -702.0703125 470.51171875 C-711.86656722 427.35939745 -703.42803856 379.89693716 -680.28735352 342.41992188 C-675.79093281 335.39431296 -670.58192775 329.17686676 -665 323 C-663.79024969 321.58454316 -662.58172303 320.16803858 -661.375 318.75 C-632.03618878 285.68343395 -591.27117942 267.26037385 -547.44970703 264.12768555 C-518.19339738 262.60276528 -490.80768881 270.87695099 -465 284 C-463.72769531 282.89205078 -463.72769531 282.89205078 -462.4296875 281.76171875 C-455.78649964 276.00607456 -449.06361502 270.40480988 -442.12158203 265.01318359 C-437.24852051 261.22120003 -432.51072361 257.29058114 -427.78125 253.3203125 C-424.50181062 250.58437571 -421.17080365 247.91968742 -417.828125 245.26171875 C-414.20189961 242.36174016 -410.6011388 239.43103342 -407 236.5 C-401.9092174 232.35771924 -396.80439964 228.23505005 -391.671875 224.14453125 C-388.87670137 221.90103663 -386.09744505 219.63882492 -383.31933594 217.37426758 C-377.5033283 212.63349401 -371.66609043 207.92794241 -365.75 203.3125 C-361.43626508 199.94655288 -357.19050081 196.51979896 -353 193 C-348.23844229 189.00054346 -343.39162725 185.1357756 -338.48779297 181.31420898 C-333.98044798 177.79342126 -329.547343 174.18919809 -325.125 170.5625 C-319.08592819 165.6185093 -312.91779967 160.88650123 -306.64892578 156.23852539 C-302.85146095 153.4149975 -299.14069412 150.52574877 -295.5 147.5 C-290.49850377 143.34583372 -285.32518027 139.45990634 -280.11108398 135.57983398 C-275.71227668 132.30055346 -271.36506243 128.96696377 -267.0625 125.5625 C-261.28896012 120.99490425 -255.45566637 116.5111454 -249.60009766 112.04931641 C-244.35234099 108.04603112 -239.13954853 103.99994035 -233.9375 99.9375 C-227.57577 94.97303326 -221.16059063 90.08865875 -214.69384766 85.26196289 C-210.54327863 82.1627952 -206.41508479 79.03742204 -202.3125 75.875 C-201.78309814 75.46701172 -201.25369629 75.05902344 -200.70825195 74.63867188 C-198.12620407 72.64643189 -195.54821221 70.6490629 -192.97265625 68.6484375 C-185.80064826 63.09533169 -178.53468283 57.68273714 -171.22241211 52.31567383 C-166.10201027 48.55589551 -161.00907532 44.76281139 -155.9375 40.9375 C-149.56372995 36.13638495 -143.11779373 31.44200289 -136.63818359 26.78491211 C-132.52730299 23.82969188 -128.43564942 20.85212373 -124.3684082 17.8371582 C-115.75797523 11.46168958 -106.95827962 5.37952365 -98.06933594 -0.60058594 C-96.35088957 -1.76270658 -94.64624482 -2.94520502 -92.9453125 -4.1328125 C-63.15308429 -24.32632889 -27.92540448 -23.14400554 0 0 Z M-330.64453125 215.46875 C-335.07838652 220.6820438 -335.35314022 224.35247724 -335.2734375 231.015625 C-334.90127272 235.07753773 -333.84250919 237.08460596 -331 240 C-327.34602127 242.67554367 -323.5656788 244.59714599 -319 245 C-318.67 244.67 -318.34 244.34 -318 244 C-317.154375 244.103125 -316.30875 244.20625 -315.4375 244.3125 C-310.41933852 243.8563035 -307.45816196 241.58003551 -304 238 C-301.18525232 233.58720203 -300.43045608 229.08237295 -301.359375 223.953125 C-302.85576087 219.39097295 -305.62672169 216.1134689 -309.3125 213.125 C-316.46478233 210.13102135 -324.58482011 210.05675145 -330.64453125 215.46875 Z M-602 360 C-602.67417969 360.59167969 -603.34835937 361.18335938 -604.04296875 361.79296875 C-623.66309353 380.15991191 -633.00104809 405.59912801 -634 432 C-634.45058145 439.52972623 -634.45058145 439.52972623 -632 446 C-631.89014913 447.37313591 -631.81358009 448.74894513 -631.75 450.125 C-629.96703187 469.32619524 -618.87925288 487.20080048 -606 501 C-605.34 501 -604.68 501 -604 501 C-604 501.66 -604 502.32 -604 503 C-583.44819185 521.93300135 -557.91375497 527.88000649 -530.67480469 527.13183594 C-506.00244425 525.91578312 -484.00010765 512.14687613 -467.5625 494.4375 C-463.5009316 489.62957502 -460.16271519 484.4317885 -457 479 C-456.32130859 477.84951172 -456.32130859 477.84951172 -455.62890625 476.67578125 C-445.0522395 457.26875099 -442.07217321 430.39404229 -447.625 409.125 C-448.35513326 406.73036714 -449.14488302 404.3528995 -450 402 C-450.43570313 400.79601562 -450.87140625 399.59203125 -451.3203125 398.3515625 C-456.70914026 384.7764281 -465.0130906 374.38033311 -475 364 C-475.58265625 363.34257813 -476.1653125 362.68515625 -476.765625 362.0078125 C-488.60159911 349.03606309 -507.99018642 340.78849403 -525 338 C-526.41609695 337.95982704 -527.83399328 337.95676315 -529.25 338 C-530.4875 338 -531.725 338 -533 338 C-533.495 337.505 -533.495 337.505 -534 337 C-558.73446262 335.21609978 -583.44970674 343.50017093 -602 360 Z " fill="#1F7CFE" transform="translate(839,293)"/>
<path d="M0 0 C11.84545602 0.00168769 22.99173917 0.80451043 34.51922607 3.72518921 C36.99743533 4.3435982 39.48458638 4.88475032 41.98260498 5.41708374 C53.68208746 7.99799962 64.18386363 12.00660408 74.90057373 17.31942749 C75.62373779 17.67021362 76.34690186 18.02099976 77.09197998 18.38241577 C91.07492236 25.20816783 103.39448305 33.68651782 114.75213623 44.34677124 C116.94419233 46.4175411 116.94419233 46.4175411 119.67401123 48.44833374 C120.40877686 49.06579468 121.14354248 49.68325562 121.90057373 50.31942749 C121.90057373 50.97942749 121.90057373 51.63942749 121.90057373 52.31942749 C122.89057373 52.64942749 123.88057373 52.97942749 124.90057373 53.31942749 C128.16375055 56.75935972 131.00303801 60.56961216 133.90057373 64.31942749 C134.34530029 64.89064331 134.79002686 65.46185913 135.24822998 66.05038452 C162.88884175 101.79221548 175.38371426 145.38127285 170.12689209 190.44515991 C166.8106408 214.62683104 159.01663156 236.06088986 146.78338623 257.06161499 C145.39937352 259.45635897 144.09088482 261.826039 142.90057373 264.31942749 C143.70108154 264.67134155 143.70108154 264.67134155 144.51776123 265.03036499 C148.19009353 267.01703656 151.37432685 269.65352466 154.65447998 272.21786499 C157.45364393 274.58802593 157.45364393 274.58802593 160.90057373 275.31942749 C162.58475207 276.96839653 164.24801068 278.63877555 165.90057373 280.31942749 C167.92251608 281.98739584 169.94278039 283.60792598 172.02557373 285.19442749 C172.58526855 285.62352417 173.14496338 286.05262085 173.72161865 286.49472046 C178.91340063 290.42391382 184.3306175 293.94843193 189.90057373 297.31942749 C187.42685914 302.37929825 183.73884018 305.18003118 179.40057373 308.56942749 C177.94211111 309.73072347 176.48377801 310.89218213 175.02557373 312.05380249 C173.96016357 312.89588257 173.96016357 312.89588257 172.87322998 313.75497437 C170.35926783 315.74872059 167.87778186 317.78026226 165.40057373 319.81942749 C158.92681388 325.11878713 152.44763561 330.41089537 145.93914795 335.66757202 C143.921076 337.30281451 141.91278288 338.94955615 139.90447998 340.59677124 C138.6536617 341.60908806 137.40238067 342.62083346 136.15057373 343.63192749 C135.57847168 344.10614136 135.00636963 344.58035522 134.41693115 345.06893921 C131.20286519 347.64154344 130.1787679 348.31942749 125.90057373 348.31942749 C125.90057373 347.65942749 125.90057373 346.99942749 125.90057373 346.31942749 C125.31880371 346.05154419 124.73703369 345.78366089 124.13763428 345.50765991 C121.86206862 344.2989752 120.07954166 342.96088783 118.10760498 341.30770874 C117.39926514 340.71804321 116.69092529 340.12837769 115.96112061 339.52084351 C115.21926514 338.89750122 114.47740967 338.27415894 113.71307373 337.63192749 C112.17864192 336.35501478 110.64349328 335.07896295 109.10760498 333.80380249 C108.01053223 332.89211304 108.01053223 332.89211304 106.89129639 331.96200562 C103.93968339 329.52658101 100.93753063 327.16567398 97.88494873 324.85848999 C96.40262992 323.70881752 94.96050327 322.50698249 93.54119873 321.28036499 C92.75229248 320.61263062 91.96338623 319.94489624 91.15057373 319.25692749 C90.45447998 318.64720093 89.75838623 318.03747437 89.04119873 317.40927124 C86.92909922 316.0393757 86.92909922 316.0393757 84.54901123 316.90536499 C82.04915886 318.24009443 79.55898429 319.5883066 77.09295654 320.98471069 C41.79295739 340.8397747 -2.12656049 345.35993398 -41.14630127 335.03427124 C-67.11664228 327.74181146 -91.04076576 315.89955198 -110.86895752 297.39755249 C-112.91725249 295.48915858 -115.01978224 293.68318023 -117.16192627 291.88192749 C-141.66808107 270.42673975 -157.83251375 238.67009927 -165.09942627 207.31942749 C-165.27731689 206.56387573 -165.45520752 205.80832397 -165.63848877 205.02987671 C-170.58729689 182.76514969 -170.64017487 155.41539671 -165.09942627 133.31942749 C-164.93313721 132.60834839 -164.76684814 131.89726929 -164.59552002 131.16464233 C-159.28380502 108.60460833 -149.23635985 84.60210367 -133.68145752 67.15927124 C-131.17132771 64.24008324 -128.9069199 61.13404165 -126.61505127 58.04208374 C-126.11489502 57.47360718 -125.61473877 56.90513062 -125.09942627 56.31942749 C-124.43942627 56.31942749 -123.77942627 56.31942749 -123.09942627 56.31942749 C-122.83001221 55.72516968 -122.56059814 55.13091187 -122.28302002 54.51864624 C-110.09732571 31.87658058 -71.84215556 14.63257003 -48.45880127 7.55770874 C-39.47999158 4.97489933 -30.55412774 2.7609375 -21.26739502 1.64364624 C-14.39649212 0.61610581 -7.40355375 0.02183003 0 0 Z M-64.09942627 98.31942749 C-65.46745145 99.95773841 -66.80912316 101.61922943 -68.09942627 103.31942749 C-68.86255127 104.04130249 -69.62567627 104.76317749 -70.41192627 105.50692749 C-86.79750572 122.65462691 -95.13157435 146.99811469 -95.34942627 170.44442749 C-95.62855714 178.38818045 -95.62855714 178.38818045 -93.09942627 185.31942749 C-92.99630127 186.57755249 -92.89317627 187.83567749 -92.78692627 189.13192749 C-90.50402838 210.48373717 -76.13669693 231.81409719 -60.09942627 245.31942749 C-45.38793175 256.83837389 -27.06553146 265.55920126 -8.09942627 265.31942749 C-7.76942627 265.64942749 -7.43942627 265.97942749 -7.09942627 266.31942749 C19.22983799 268.33459075 43.61317338 259.89011285 64.15057373 243.50692749 C84.3102155 226.13616897 95.54041426 201.33721557 97.70916748 175.06161499 C99.00386477 152.12015233 92.10411102 127.17782411 76.95135498 109.61239624 C76.27459717 108.85571655 75.59783936 108.09903687 74.90057373 107.31942749 C74.21350342 106.4905603 73.52643311 105.66169312 72.81854248 104.80770874 C63.08297179 93.35306431 51.41660876 86.38622228 37.90057373 80.31942749 C36.96600342 79.89661499 36.03143311 79.47380249 35.06854248 79.03817749 C1.70678623 65.50898601 -37.89075133 74.87683962 -64.09942627 98.31942749 Z " fill="#207CFE" transform="translate(298.09942626953125,159.68057250976563)"/>
<path d="M0 0 C3.07370004 0.59741865 4.99118754 1.51472626 7.44140625 3.44921875 C8.09882812 3.96121826 8.75625 4.47321777 9.43359375 5.00073242 C10.48740234 5.83568237 10.48740234 5.83568237 11.5625 6.6875 C13.07287013 7.86631331 14.58464534 9.04332806 16.09765625 10.21875 C16.89059082 10.83492187 17.68352539 11.45109375 18.50048828 12.0859375 C23.59935759 15.99052193 28.81048876 19.7464516 34.01782227 23.50463867 C34.78537842 24.0638501 35.55293457 24.62306152 36.34375 25.19921875 C37.02630859 25.69252686 37.70886719 26.18583496 38.41210938 26.6940918 C40 28 40 28 41 30 C35.63317881 29.61665563 32.40719906 26.546216 28.375 23.3125 C26.87519972 22.13350372 25.3738341 20.95649659 23.87109375 19.78125 C23.08460449 19.16507813 22.29811523 18.54890625 21.48779297 17.9140625 C16.3818246 13.98562364 11.1356672 10.24016927 5.89404297 6.49536133 C5.12334473 5.9361499 4.35264648 5.37693848 3.55859375 4.80078125 C2.87079834 4.30747314 2.18300293 3.81416504 1.47436523 3.3059082 C0.98782471 2.8749585 0.50128418 2.44400879 0 2 C0 1.34 0 0.68 0 0 Z " fill="#1C6FFD" transform="translate(554,608)"/>
<path d="M0 0 C0.33 0.99 0.66 1.98 1 3 C-0.765625 5.5234375 -0.765625 5.5234375 -3.25 8.375 C-6.20588918 11.79215851 -8.76991109 15.06888231 -11 19 C-12.5625 21.3125 -12.5625 21.3125 -14 23 C-14.66 23 -15.32 23 -16 23 C-16.268125 23.639375 -16.53625 24.27875 -16.8125 24.9375 C-18 27 -18 27 -21 28 C-20.34938905 26.32700041 -19.67966676 24.66140763 -19 23 C-18.731875 22.34 -18.46375 21.68 -18.1875 21 C-16.91282622 18.853181 -15.37083614 17.3441942 -13.56640625 15.63671875 C-10.70711602 12.64908133 -8.27670622 9.29549477 -5.76953125 6.01171875 C-5.18558594 5.34785156 -4.60164063 4.68398437 -4 4 C-3.34 4 -2.68 4 -2 4 C-1.34 2.68 -0.68 1.36 0 0 Z " fill="#2475F7" transform="translate(177,212)"/>
<path d="M0 0 C-0.66 0.99 -1.32 1.98 -2 3 C-4.62462244 3.26697888 -7.01065933 3.34832984 -9.6328125 3.29296875 C-10.76056595 3.28660149 -10.76056595 3.28660149 -11.91110229 3.28010559 C-14.31609685 3.2632917 -16.72025809 3.22563624 -19.125 3.1875 C-20.75389416 3.17245659 -22.38280144 3.15876758 -24.01171875 3.14648438 C-28.00813434 3.11337954 -32.00392582 3.06158009 -36 3 C-36.33 2.34 -36.66 1.68 -37 1 C-33.08350386 0.82916444 -29.1667827 0.6641234 -25.25 0.5 C-24.15816406 0.45230469 -23.06632812 0.40460938 -21.94140625 0.35546875 C-14.62278924 0.05233077 -7.32461293 -0.0596305 0 0 Z " fill="#186DFD" transform="translate(320,425)"/>
<path d="M0 0 C1.92875977 0.07250977 1.92875977 0.07250977 3.89648438 0.14648438 C5.23438081 0.20298753 6.57227138 0.25962985 7.91015625 0.31640625 C9.27536819 0.36971838 10.64060261 0.42245791 12.00585938 0.47460938 C15.32838932 0.60375365 18.65057786 0.73869795 21.97265625 0.87890625 C13.88718904 6.26921773 -0.69459137 4.70278261 -9.83984375 2.87890625 C-11.23873563 2.55865119 -12.63603784 2.23065853 -14.02734375 1.87890625 C-14.02734375 1.54890625 -14.02734375 1.21890625 -14.02734375 0.87890625 C-9.26002884 0.08834649 -4.82558624 -0.19302345 0 0 Z " fill="#1B6FFD" transform="translate(295.02734375,819.12109375)"/>
<path d="M0 0 C5.24952612 2.73888319 9.65232561 6.018657 14.2265625 9.76953125 C18.26465048 13.01706398 22.44645947 16.05893979 26.62890625 19.1171875 C29 21 29 21 30 23 C27.07120629 22.37240135 24.63904371 21.41377341 22 20 C22 19.34 22 18.68 22 18 C20.93072266 17.64035156 20.93072266 17.64035156 19.83984375 17.2734375 C16.5673883 15.80600906 14.28706331 13.95150654 11.5625 11.625 C8.56407414 9.09659765 5.66316457 6.66730983 2.3125 4.625 C1.549375 4.08875 0.78625 3.5525 0 3 C0 2.01 0 1.02 0 0 Z " fill="#1C6EFB" transform="translate(682,703)"/>
<path d="M0 0 C2.28623499 1.78922739 2.96409018 2.85700405 3.68139648 5.71337891 C4.03488355 9.35984857 4.11231212 12.92197007 4.09765625 16.5859375 C4.0962413 17.28772125 4.09482635 17.989505 4.09336853 18.71255493 C4.0878129 20.93341504 4.07526892 23.15417084 4.0625 25.375 C4.05747926 26.88932145 4.05291736 28.4036445 4.04882812 29.91796875 C4.03785807 33.61201252 4.02062449 37.30599606 4 41 C2.03995782 37.69895372 1.71681763 35.12246708 1.62109375 31.30859375 C1.58693359 30.19806641 1.55277344 29.08753906 1.51757812 27.94335938 C1.47793945 26.20795898 1.47793945 26.20795898 1.4375 24.4375 C1.21805409 16.25263433 0.85660964 8.14550418 0 0 Z " fill="#1668FC" transform="translate(464,298)"/>
<path d="M0 0 C5.2080774 1.57359064 8.84113244 4.88554813 12.9375 8.3125 C13.97293945 9.16618164 13.97293945 9.16618164 15.02929688 10.03710938 C16.38509523 11.15644621 17.73726195 12.28019895 19.08544922 13.40869141 C20.32613343 14.43990534 21.57727005 15.45872215 22.84033203 16.46240234 C24.26177444 17.59930594 25.63640778 18.79431987 27 20 C27 20.66 27 21.32 27 22 C23.2166946 20.33680777 20.10527546 17.90705621 16.875 15.375 C16.30821533 14.93349609 15.74143066 14.49199219 15.1574707 14.03710938 C13.99869354 13.1328566 12.84121841 12.2269328 11.68505859 11.31933594 C10.1050522 10.08225182 8.5157294 8.85709278 6.92578125 7.6328125 C6.02214844 6.92898438 5.11851562 6.22515625 4.1875 5.5 C3.37667969 4.8709375 2.56585937 4.241875 1.73046875 3.59375 C1.15941406 3.0678125 0.58835937 2.541875 0 2 C0 1.34 0 0.68 0 0 Z " fill="#1B70FD" transform="translate(614,556)"/>
<path d="M0 0 C0.8971875 0.309375 0.8971875 0.309375 1.8125 0.625 C0.86890625 1.31464844 -0.0746875 2.00429688 -1.046875 2.71484375 C-9.13426032 8.63205584 -17.18682643 14.59097245 -25.1875 20.625 C-25.8475 20.295 -26.5075 19.965 -27.1875 19.625 C-23.01896785 15.19904854 -18.41205572 11.59121817 -13.5625 7.9375 C-12.4178125 7.06641602 -12.4178125 7.06641602 -11.25 6.17773438 C-2.53542095 -0.43464359 -2.53542095 -0.43464359 0 0 Z " fill="#1E72FA" transform="translate(726.1875,304.375)"/>
<path d="M0 0 C0.99 0.33 1.98 0.66 3 1 C-1.31958291 4.68315533 -5.65333426 8.34884967 -10 12 C-10.98484375 12.82886719 -11.9696875 13.65773438 -12.984375 14.51171875 C-14.29148437 15.58873047 -14.29148437 15.58873047 -15.625 16.6875 C-16.78902344 17.65236328 -16.78902344 17.65236328 -17.9765625 18.63671875 C-20 20 -20 20 -23 20 C-18.52139614 13.97704998 -12.88957769 9.59859576 -7 5 C-6.28585937 4.43152344 -5.57171875 3.86304688 -4.8359375 3.27734375 C-3 1.875 -3 1.875 0 0 Z " fill="#1B6FFE" transform="translate(416,543)"/>
<path d="M0 0 C0.33 0 0.66 0 1 0 C1.60465428 11.33887596 2.18966094 22.64141683 2 34 C-1.60856089 30.39143911 -1.12760315 25.73978751 -1.1328125 20.859375 C-1.13410156 19.70695312 -1.13539063 18.55453125 -1.13671875 17.3671875 C-1.13285156 16.17351562 -1.12898437 14.97984375 -1.125 13.75 C-1.12886719 12.54085938 -1.13273438 11.33171875 -1.13671875 10.0859375 C-1.13542969 8.93867188 -1.13414062 7.79140625 -1.1328125 6.609375 C-1.13168457 5.55717773 -1.13055664 4.50498047 -1.12939453 3.42089844 C-1 1 -1 1 0 0 Z " fill="#1467FD" transform="translate(202,315)"/>
<path d="M0 0 C0.33 0 0.66 0 1 0 C1.12330415 11.71389465 0.8283506 23.31433979 0 35 C-0.33 35 -0.66 35 -1 35 C-2.03209176 29.88082487 -2.19160771 24.94881642 -2.1875 19.75 C-2.18814453 18.91041748 -2.18878906 18.07083496 -2.18945312 17.20581055 C-2.13861497 11.2375272 -1.51951276 5.79314241 0 0 Z " fill="#156AFD" transform="translate(205,704)"/>
<path d="M0 0 C4.76264597 0.47887665 7.22641652 2.49488642 10.8125 5.5625 C11.78832031 6.38878906 12.76414062 7.21507812 13.76953125 8.06640625 C14.50558594 8.70449219 15.24164062 9.34257812 16 10 C14.42875266 13.32406103 12.83217282 15.59694427 10 18 C9.01 18 8.02 18 7 18 C7.25 16.125 7.25 16.125 8 14 C10 12.875 10 12.875 12 12 C12.33 11.34 12.66 10.68 13 10 C12.34 9.814375 11.68 9.62875 11 9.4375 C6.710473 7.38210165 3.36916896 4.33572808 0 1 C0 0.67 0 0.34 0 0 Z " fill="#1E70F7" transform="translate(832,290)"/>
<path d="M0 0 C4.82121153 1.54902044 8.2450458 4.30494751 12.125 7.4375 C13.05505859 8.17323242 13.05505859 8.17323242 14.00390625 8.92382812 C19.83541785 13.57022608 19.83541785 13.57022608 22 16 C22 16.66 22 17.32 22 18 C18.97689952 17.66409995 17.97003314 16.96992762 15.78125 14.7734375 C12.25642914 11.25851783 8.38421058 8.42152533 4.37695312 5.48632812 C2.88373497 4.36854767 1.43722251 3.1889176 0 2 C0 1.34 0 0.68 0 0 Z " fill="#1B70FC" transform="translate(790,697)"/>
<path d="M0 0 C5.23057106 1.17687849 8.21005687 3.65310934 12.03515625 7.19921875 C13.77460034 8.79342099 15.55727443 10.20468572 17.4375 11.625 C20.17993759 14.16677143 20.79024988 15.3293729 21 19 C13.80160417 12.92135463 6.58849083 6.74222228 0 0 Z " fill="#1D70F9" transform="translate(400,196)"/>
<path d="M0 0 C5.18100648 2.81026315 9.77096239 5.95354996 14.375 9.625 C15.31666016 10.35976563 15.31666016 10.35976563 16.27734375 11.109375 C20.86988002 14.73976004 20.86988002 14.73976004 22 17 C17.36813309 16.50582252 15.04096716 14.70217153 11.5625 11.6875 C7.12346339 7.9010762 7.12346339 7.9010762 2.3125 4.625 C1.549375 4.08875 0.78625 3.5525 0 3 C0 2.01 0 1.02 0 0 Z " fill="#1A6DFD" transform="translate(618,655)"/>
<path d="M0 0 C0.99 0.33 1.98 0.66 3 1 C-3.53797484 6.51369211 -10.06647133 11.98338808 -17 17 C-17.66 16.67 -18.32 16.34 -19 16 C-15.19181145 12.0470134 -11.16825422 8.54152652 -6.875 5.125 C-6.25496094 4.61453125 -5.63492188 4.1040625 -4.99609375 3.578125 C-3.39319509 2.30270026 -1.70115992 1.14107287 0 0 Z " fill="#1B6FFC" transform="translate(647,361)"/>
<path d="M0 0 C0.99 0.33 1.98 0.66 3 1 C1.8803014 2.00593243 0.7540588 3.0045849 -0.375 4 C-1.31472656 4.8353125 -1.31472656 4.8353125 -2.2734375 5.6875 C-4 7 -4 7 -6 7 C-6 7.66 -6 8.32 -6 9 C-7.96875 10.7265625 -7.96875 10.7265625 -10.5 12.625 C-11.75296875 13.57246094 -11.75296875 13.57246094 -13.03125 14.5390625 C-13.6809375 15.02117188 -14.330625 15.50328125 -15 16 C-15.66 15.67 -16.32 15.34 -17 15 C-13.84936039 10.61160911 -10.15104249 7.34007246 -5.875 4.0625 C-4.84117187 3.26972656 -3.80734375 2.47695313 -2.7421875 1.66015625 C-1.83726562 1.11230469 -0.93234375 0.56445312 0 0 Z " fill="#1E72FD" transform="translate(437,526)"/>
<path d="M0 0 C4.65092754 0.91609179 7.4869222 3.41328954 11.125 6.3125 C11.75792969 6.79912109 12.39085937 7.28574219 13.04296875 7.78710938 C18.69890582 12.24821473 18.69890582 12.24821473 20 16 C15.83067988 14.03257717 12.47522847 11.40927859 8.875 8.5625 C8.24207031 8.07201172 7.60914063 7.58152344 6.95703125 7.07617188 C6.04630859 6.35977539 6.04630859 6.35977539 5.1171875 5.62890625 C4.56659668 5.19650635 4.01600586 4.76410645 3.44873047 4.31860352 C2 3 2 3 0 0 Z " fill="#1D71FA" transform="translate(816,718)"/>
<path d="M0 0 C5.08190913 1.53526127 8.42477886 4.67369658 12.3125 8.125 C12.95767578 8.68832031 13.60285156 9.25164063 14.26757812 9.83203125 C15.85026301 11.21541508 17.42585141 12.60691045 19 14 C18.67 14.99 18.34 15.98 18 17 C17.53851562 16.5875 17.07703125 16.175 16.6015625 15.75 C11.84272175 11.53663902 6.951006 7.56635851 1.90625 3.69921875 C1.2771875 3.13847656 0.648125 2.57773437 0 2 C0 1.34 0 0.68 0 0 Z " fill="#1B6FFC" transform="translate(723,643)"/>
<path d="M0 0 C4.32532378 0.53136656 7.26605095 3.25712257 10.5625 5.875 C11.13935547 6.32230469 11.71621094 6.76960937 12.31054688 7.23046875 C18.13990148 11.78906439 18.13990148 11.78906439 20 14 C20 14.66 20 15.32 20 16 C15.83067988 14.03257717 12.47522847 11.40927859 8.875 8.5625 C8.24207031 8.07201172 7.60914063 7.58152344 6.95703125 7.07617188 C6.04630859 6.35977539 6.04630859 6.35977539 5.1171875 5.62890625 C4.56659668 5.19650635 4.01600586 4.76410645 3.44873047 4.31860352 C2 3 2 3 0 0 Z " fill="#196DFD" transform="translate(642,579)"/>
<path d="M0 0 C4.33858829 0.52682858 6.6624994 1.97570263 10 4.75 C11.29550781 5.82507813 11.29550781 5.82507813 12.6171875 6.921875 C15.21101113 9.18402938 17.64715238 11.49029587 20 14 C12.73534404 14 5.18248712 5.73183607 0 1 C0 0.67 0 0.34 0 0 Z " fill="#196EFE" transform="translate(462,441)"/>
<path d="M0 0 C4.04160556 -0.05831395 8.08310205 -0.09370212 12.125 -0.125 C13.83816406 -0.15013672 13.83816406 -0.15013672 15.5859375 -0.17578125 C16.69453125 -0.18222656 17.803125 -0.18867188 18.9453125 -0.1953125 C20.46922607 -0.21102295 20.46922607 -0.21102295 22.02392578 -0.22705078 C25.28288429 0.02158182 27.95115207 0.85121636 31 2 C31 2.99 31 3.98 31 5 C30.1028125 4.79503906 29.205625 4.59007812 28.28125 4.37890625 C18.83080157 2.33846852 9.65469355 1.36791868 0 1 C0 0.67 0 0.34 0 0 Z " fill="#186CFB" transform="translate(783,276)"/>
<path d="M0 0 C3.17051201 0.72239514 6.23683257 0.75052677 9.48632812 0.84375 C10.16874573 0.8645311 10.85116333 0.88531219 11.55426025 0.90672302 C13.72422669 0.97186427 15.89430937 1.03093779 18.06445312 1.08984375 C19.53972534 1.13306272 21.014986 1.17667807 22.49023438 1.22070312 C26.09818479 1.32750893 29.70626445 1.42887528 33.31445312 1.52734375 C33.31445312 1.85734375 33.31445312 2.18734375 33.31445312 2.52734375 C18.85861849 3.63801662 4.67452918 3.74816809 -9.68554688 1.52734375 C-9.68554688 1.19734375 -9.68554688 0.86734375 -9.68554688 0.52734375 C-2.15021238 -0.60295642 -2.15021238 -0.60295642 0 0 Z " fill="#3486FB" transform="translate(283.685546875,496.47265625)"/>
<path d="M0 0 C0.55816406 0.22945312 1.11632812 0.45890625 1.69140625 0.6953125 C-2.05859375 3.6953125 -2.05859375 3.6953125 -4.30859375 3.6953125 C-4.63859375 4.6853125 -4.96859375 5.6753125 -5.30859375 6.6953125 C-6.99609375 7.6328125 -6.99609375 7.6328125 -9.30859375 8.6953125 C-11.32041832 10.01073626 -13.32259038 11.3412193 -15.30859375 12.6953125 C-15.96859375 12.3653125 -16.62859375 12.0353125 -17.30859375 11.6953125 C-5.96125135 -0.78676414 -5.96125135 -0.78676414 0 0 Z " fill="#1D70FB" transform="translate(214.30859375,184.3046875)"/>
<path d="M0 0 C3.09305422 0.60903059 5.19639762 1.59868803 7.75 3.4375 C8.36359375 3.86933594 8.9771875 4.30117188 9.609375 4.74609375 C10.29773438 5.36677734 10.29773438 5.36677734 11 6 C11 6.66 11 7.32 11 8 C11.763125 8.2475 12.52625 8.495 13.3125 8.75 C16.2364045 10.10995558 17.30004356 11.31585826 19 14 C14.2323028 13.06315933 11.08228585 10.4131701 7.25 7.5625 C6.55261719 7.05912109 5.85523438 6.55574219 5.13671875 6.03710938 C4.47800781 5.55177734 3.81929687 5.06644531 3.140625 4.56640625 C2.53766602 4.12240479 1.93470703 3.67840332 1.31347656 3.22094727 C0.8800293 2.81803467 0.44658203 2.41512207 0 2 C0 1.34 0 0.68 0 0 Z " fill="#1B6CFC" transform="translate(597,640)"/>
<path d="M0 0 C5.04815113 4.43625403 9.09154506 9.93921347 12 16 C11.6953125 18.33984375 11.6953125 18.33984375 11 20 C9.51678092 17.73172355 8.03832301 15.46058097 6.5625 13.1875 C6.14162109 12.54490234 5.72074219 11.90230469 5.28710938 11.24023438 C3.52277296 8.51609896 2.0308261 6.09247829 1 3 C0.34 3 -0.32 3 -1 3 C-0.67 2.01 -0.34 1.02 0 0 Z " fill="#1A6EFD" transform="translate(436,633)"/>
<path d="M0 0 C0.82638376 2.89234315 1 4.88742431 1 8 C0.34 8 -0.32 8 -1 8 C-0.98839844 8.61488281 -0.97679687 9.22976563 -0.96484375 9.86328125 C-0.95582031 10.67152344 -0.94679687 11.47976563 -0.9375 12.3125 C-0.92589844 13.11300781 -0.91429687 13.91351563 -0.90234375 14.73828125 C-1 17 -1 17 -2 20 C-2.66 20 -3.32 20 -4 20 C-4.33 22.97 -4.66 25.94 -5 29 C-5.33 29 -5.66 29 -6 29 C-6.3149552 23.02392695 -5.17184922 17.98690877 -3.5625 12.25 C-3.21735352 10.97576172 -3.21735352 10.97576172 -2.86523438 9.67578125 C-1.97814936 6.42056492 -1.06716232 3.20148697 0 0 Z " fill="#2F7EF6" transform="translate(138,275)"/>
<path d="M0 0 C16.8929385 -0.55353075 16.8929385 -0.55353075 24 3 C24 3.33 24 3.66 24 4 C15.86894139 3.50877547 7.98079085 2.64733759 0 1 C0 0.67 0 0.34 0 0 Z " fill="#1B70FC" transform="translate(315,163)"/>
<path d="M0 0 C3.5624308 -0.05827558 7.12473819 -0.09368885 10.6875 -0.125 C12.19860352 -0.15013672 12.19860352 -0.15013672 13.74023438 -0.17578125 C14.71669922 -0.18222656 15.69316406 -0.18867187 16.69921875 -0.1953125 C17.59471436 -0.20578613 18.49020996 -0.21625977 19.4128418 -0.22705078 C22.26168257 0.02296544 24.40894543 0.81983488 27 2 C27 2.33 27 2.66 27 3 C20.565 3.495 20.565 3.495 14 4 C13.67 3.34 13.34 2.68 13 2 C9.95418731 1.53045739 9.95418731 1.53045739 6.4375 1.375 C5.23996094 1.30023437 4.04242188 1.22546875 2.80859375 1.1484375 C1.41833984 1.07496094 1.41833984 1.07496094 0 1 C0 0.67 0 0.34 0 0 Z " fill="#1669FD" transform="translate(291,628)"/>
<path d="M0 0 C0.57878906 0.21785156 1.15757812 0.43570312 1.75390625 0.66015625 C0.0047518 2.098685 -1.7454517 3.53593823 -3.49609375 4.97265625 C-4.95789063 6.17341797 -4.95789063 6.17341797 -6.44921875 7.3984375 C-8.68271995 9.20457883 -10.93296638 10.9583554 -13.24609375 12.66015625 C-13.90609375 12.33015625 -14.56609375 12.00015625 -15.24609375 11.66015625 C-5.70454775 -0.86312288 -5.70454775 -0.86312288 0 0 Z " fill="#1B70FB" transform="translate(595.24609375,402.33984375)"/>
<path d="M0 0 C1.32 0.33 2.64 0.66 4 1 C-1.61 5.29 -7.22 9.58 -13 14 C-13.66 13.67 -14.32 13.34 -15 13 C-11.84345216 9.63301564 -8.46875675 6.59814084 -4.9375 3.625 C-4.10089844 2.91601562 -3.26429688 2.20703125 -2.40234375 1.4765625 C-1.60957031 0.98929687 -0.81679688 0.50203125 0 0 Z " fill="#1D70FB" transform="translate(668,345)"/>
<path d="M0 0 C1.80591186 0.45309616 3.59067698 0.98953836 5.3671875 1.546875 C5.3671875 1.876875 5.3671875 2.206875 5.3671875 2.546875 C-2.70310803 2.66234823 -10.60948853 2.44728811 -18.6328125 1.546875 C-13.34186275 -1.98042484 -6.13286786 -1.05550841 0 0 Z " fill="#1B6AFC" transform="translate(314.6328125,231.453125)"/>
<path d="M0 0 C3 0 3 0 5.1875 2.125 C5.81785156 2.79982422 5.81785156 2.79982422 6.4609375 3.48828125 C9.35762941 6.3335091 12.71416052 8.62734668 16 11 C14.28125 11.70703125 14.28125 11.70703125 12 12 C9.78125 10.63671875 9.78125 10.63671875 7.5 8.6875 C4.75749957 6.37234125 2.28434628 4.4704914 -1 3 C-0.67 2.01 -0.34 1.02 0 0 Z " fill="#1A6FFD" transform="translate(512,576)"/>
<path d="M0 0 C0.66 0.33 1.32 0.66 2 1 C-0.66666667 3.66666667 -3.33333333 6.33333333 -6 9 C-6.70640625 9.74765625 -7.4128125 10.4953125 -8.140625 11.265625 C-10 13 -10 13 -12 13 C-11.78130073 9.17276285 -11.08530916 8.08143147 -8.25 5.375 C-5.6125423 3.37154655 -2.96867033 1.48433516 0 0 Z " fill="#1B6FFC" transform="translate(198,594)"/>
<path d="M0 0 C0 4.1350296 -1.73684685 5.43749525 -4.375 8.5625 C-5.18710937 9.53316406 -5.99921875 10.50382813 -6.8359375 11.50390625 C-8.17405182 13.04732692 -9.55558017 14.55558017 -11 16 C-11.99 15.67 -12.98 15.34 -14 15 C-4.58997722 4.44191344 -4.58997722 4.44191344 0 0 Z " fill="#1B70FD" transform="translate(379,778)"/>
<path d="M0 0 C4.85347694 1.3249848 8.02379753 3.28544618 11.875 6.5 C12.84179688 7.2940625 13.80859375 8.088125 14.8046875 8.90625 C15.89136719 9.94265625 15.89136719 9.94265625 17 11 C17 11.66 17 12.32 17 13 C13.83715933 11.5479686 11.23584692 9.77057857 8.5 7.625 C7.7471875 7.03976562 6.994375 6.45453125 6.21875 5.8515625 C4.0120678 4.01007066 1.9992676 2.06288066 0 0 Z " fill="#1A6FFC" transform="translate(699,625)"/>
<path d="M0 0 C4.24896203 2.83264135 4.91822781 6.13202513 6 11 C6.22086873 14.05535072 6.14616915 16.93044792 6 20 C3.27216889 17.27216889 2.7975372 14.19456312 1.875 10.5625 C1.69324219 9.88123047 1.51148438 9.19996094 1.32421875 8.49804688 C0.56488021 5.58344292 0 3.02438796 0 0 Z " fill="#1A6CFB" transform="translate(455,670)"/>
<path d="M0 0 C0.66 0 1.32 0 2 0 C2.00257813 0.60585938 2.00515625 1.21171875 2.0078125 1.8359375 C2.34818391 9.21065138 4.82324902 13.99671878 9 20 C3.72153014 17.78680509 2.49051553 13.98103105 0 9 C-0.06950541 7.45976004 -0.08452357 5.91665012 -0.0625 4.375 C-0.05347656 3.55773437 -0.04445313 2.74046875 -0.03515625 1.8984375 C-0.02355469 1.27195312 -0.01195312 0.64546875 0 0 Z " fill="#1268FE" transform="translate(501,516)"/>
<path d="M0 0 C2.12792086 3.1918813 2.56758563 5.13686974 3.1875 8.875 C3.36667969 9.90367187 3.54585937 10.93234375 3.73046875 11.9921875 C3.99467297 14.94055338 3.74100354 17.1516034 3 20 C-0.13825018 14.17182109 -1.49590614 7.61208182 -1 1 C-0.67 0.67 -0.34 0.34 0 0 Z " fill="#2A79F8" transform="translate(133,355)"/>
<path d="M0 0 C0.99 0.33 1.98 0.66 3 1 C-1.26041226 4.76354036 -5.51848911 8.49881962 -10 12 C-10.66 11.67 -11.32 11.34 -12 11 C-8.43569436 6.35560175 -5.01847157 3.06684374 0 0 Z " fill="#196DFD" transform="translate(463,505)"/>
<path d="M0 0 C4.44707035 3.93883373 7.80879837 8.42808727 10 14 C9.67 14.99 9.34 15.98 9 17 C0 3.63106796 0 3.63106796 0 0 Z " fill="#196CFC" transform="translate(213,767)"/>
<path d="M0 0 C2.01964029 1.34642686 3.96632783 2.75032901 5.875 4.25 C5.545 4.91 5.215 5.57 4.875 6.25 C3.988125 5.71375 3.10125 5.1775 2.1875 4.625 C-0.98384657 2.8841721 -0.98384657 2.8841721 -3.75 4.125 C-4.53375 4.49625 -5.3175 4.8675 -6.125 5.25 C-8.2734375 4.8203125 -8.2734375 4.8203125 -10.125 4.25 C-8.8886832 3.35577086 -7.63528438 2.48512109 -6.375 1.625 C-5.67890625 1.13773437 -4.9828125 0.65046875 -4.265625 0.1484375 C-2.125 -0.75 -2.125 -0.75 0 0 Z " fill="#176AFD" transform="translate(386.125,472.75)"/>
<path d="M0 0 C0.33 0.99 0.66 1.98 1 3 C-2.63 5.97 -6.26 8.94 -10 12 C-10.66 11.34 -11.32 10.68 -12 10 C-8.42148591 5.22864787 -5.31427203 2.70923672 0 0 Z " fill="#1C6FFA" transform="translate(791,348)"/>
<path d="M0 0 C5.07648175 2.78387709 9.4833069 6.40829416 14 10 C12.328125 10.734375 12.328125 10.734375 10 11 C7.421875 9.453125 7.421875 9.453125 4.75 7.25 C3.85796875 6.53328125 2.9659375 5.8165625 2.046875 5.078125 C0 3 0 3 0 0 Z " fill="#1A6DFE" transform="translate(405,489)"/>
<path d="M0 0 C3.82097239 0.53069061 6.06171403 1.49701566 9 4 C8.6875 5.875 8.6875 5.875 8 8 C7.01 8.66 6.02 9.32 5 10 C4.01 9.67 3.02 9.34 2 9 C2.99 7.68 3.98 6.36 5 5 C3.35 3.35 1.7 1.7 0 0 Z " fill="#1F6FF5" transform="translate(837,735)"/>
<path d="M0 0 C0.66 0 1.32 0 2 0 C0.49650623 3.66786393 -1.63728792 5.68910393 -4.625 8.25 C-5.44226563 8.95640625 -6.25953125 9.6628125 -7.1015625 10.390625 C-8.04128906 11.18726563 -8.04128906 11.18726563 -9 12 C-9.99 11.67 -10.98 11.34 -12 11 C-12 10.34 -12 9.68 -12 9 C-10.948125 8.443125 -9.89625 7.88625 -8.8125 7.3125 C-5.31694261 5.33828844 -2.799824 2.87981897 0 0 Z " fill="#1A6CFB" transform="translate(738,393)"/>
<path d="M0 0 C0.33 0 0.66 0 1 0 C0.48914188 6.43681228 -0.72942897 11.95942424 -3 18 C-3.33 18 -3.66 18 -4 18 C-3.61020794 11.44074057 -2.57886807 6.05473373 0 0 Z " fill="#186BFD" transform="translate(207,296)"/>
<path d="M0 0 C0.33 0.99 0.66 1.98 1 3 C1.66 3 2.32 3 3 3 C4.7479503 8.24385089 5.19392201 12.47322267 5 18 C2.47580407 15.47580407 2.21042962 13.57642137 1.375 10.125 C1.11460937 9.07570313 0.85421875 8.02640625 0.5859375 6.9453125 C0 4 0 4 0 0 Z " fill="#196EFC" transform="translate(459,277)"/>
<path d="M0 0 C3.36997254 1.4615836 5.60745127 3.3380888 8.1875 5.9375 C9.22970703 6.97197266 9.22970703 6.97197266 10.29296875 8.02734375 C12 10 12 10 13 13 C9.80750178 12.70711025 8.90753146 11.90324484 6.640625 9.53125 C5.85171875 8.5309375 5.0628125 7.530625 4.25 6.5 C3.45078125 5.4996875 2.6515625 4.499375 1.828125 3.46875 C0 1 0 1 0 0 Z " fill="#196DFD" transform="translate(362,254)"/>
<path d="M0 0 C0.66 0.33 1.32 0.66 2 1 C-4.435 5.95 -4.435 5.95 -11 11 C-11.66 10.67 -12.32 10.34 -13 10 C-9.23156953 5.87827917 -5.11095695 2.36931779 0 0 Z " fill="#186CFE" transform="translate(362,797)"/>
<path d="M0 0 C3.74592831 1.24864277 4.24472985 2.48822934 6.25 5.8125 C6.79140625 6.68519531 7.3328125 7.55789063 7.890625 8.45703125 C9 11 9 11 8.671875 13.32421875 C8.45015625 13.87722656 8.2284375 14.43023437 8 15 C6.66121428 12.8782637 5.32884524 10.75294812 4 8.625 C3.6184375 8.02171875 3.236875 7.4184375 2.84375 6.796875 C0 2.2265625 0 2.2265625 0 0 Z " fill="#1A6CFD" transform="translate(211,372)"/>
<path d="M0 0 C2.54344286 2.27301934 3.87616437 4.45086481 5.25 7.5625 C5.60578125 8.34753906 5.9615625 9.13257813 6.328125 9.94140625 C7 12 7 12 6 14 C3.01380463 11.44040397 1.51448438 8.6059152 0 5 C-0.1875 2.125 -0.1875 2.125 0 0 Z " fill="#1F6FF9" transform="translate(147,789)"/>
<path d="M0 0 C-1.38238352 3.10009769 -2.98578859 5.28263873 -5.375 7.6875 C-5.96023437 8.28949219 -6.54546875 8.89148438 -7.1484375 9.51171875 C-9.12608914 11.10135013 -10.5214179 11.5905426 -13 12 C-2.93659942 0 -2.93659942 0 0 0 Z " fill="#196CFD" transform="translate(239,650)"/>
<path d="M0 0 C0.33 0.66 0.66 1.32 1 2 C-0.76537096 3.17491582 -2.53749713 4.33968684 -4.3125 5.5 C-5.29863281 6.1496875 -6.28476563 6.799375 -7.30078125 7.46875 C-10 9 -10 9 -13 9 C-5.13551402 0.91705607 -5.13551402 0.91705607 0 0 Z " fill="#1A6DFC" transform="translate(215,582)"/>
<path d="M0 0 C0.8353125 0.37125 0.8353125 0.37125 1.6875 0.75 C-4.0625 5.75 -4.0625 5.75 -6.3125 5.75 C-6.3125 6.41 -6.3125 7.07 -6.3125 7.75 C-7.9625 8.41 -9.6125 9.07 -11.3125 9.75 C-4.99798387 -0.54032258 -4.99798387 -0.54032258 0 0 Z " fill="#196EFD" transform="translate(524.3125,457.25)"/>
<path d="M0 0 C0 0.66 0 1.32 0 2 C-1.7071731 3.63181401 -3.49188084 5.18330492 -5.3125 6.6875 C-6.29863281 7.51636719 -7.28476562 8.34523438 -8.30078125 9.19921875 C-9.19152344 9.79347656 -10.08226562 10.38773437 -11 11 C-11.99 10.67 -12.98 10.34 -14 10 C-12.04653795 8.32731078 -10.08770186 6.66178419 -8.125 5 C-7.56941406 4.52304687 -7.01382813 4.04609375 -6.44140625 3.5546875 C-2.2265625 0 -2.2265625 0 0 0 Z " fill="#1C6EFA" transform="translate(828,318)"/>
<path d="M0 0 C0.33 0 0.66 0 1 0 C1.33 4.95 1.66 9.9 2 15 C1.01 15 0.02 15 -1 15 C-1.02703381 13.06257659 -1.04641125 11.12504521 -1.0625 9.1875 C-1.07410156 8.10855469 -1.08570313 7.02960938 -1.09765625 5.91796875 C-1 3 -1 3 0 0 Z " fill="#1C6FFA" transform="translate(132,340)"/>
<path d="M0 0 C7.74468085 0.74468085 7.74468085 0.74468085 11 4 C11 4.66 11 5.32 11 6 C9.35 6.33 7.7 6.66 6 7 C5.67 6.01 5.34 5.02 5 4 C4.01 4.495 4.01 4.495 3 5 C3 4.01 3 3.02 3 2 C2.01 1.67 1.02 1.34 0 1 C0 0.67 0 0.34 0 0 Z " fill="#2A77F5" transform="translate(221,872)"/>
<path d="M0 0 C-1.32332319 3.96996957 -4.0089399 5.76036395 -7.24609375 8.14453125 C-9 9 -9 9 -12 8 C-10.625 6.5 -10.625 6.5 -9 5 C-8.34 5 -7.68 5 -7 5 C-7 4.34 -7 3.68 -7 3 C-2.61538462 0 -2.61538462 0 0 0 Z " fill="#1B6DFE" transform="translate(455,621)"/>
<path d="M0 0 C0.66 0 1.32 0 2 0 C0.40758592 4.29951803 -2.35540725 6.39671947 -6 9 C-6.99 8.67 -7.98 8.34 -9 8 C-8.3125 6.125 -8.3125 6.125 -7 4 C-4.5 2.875 -4.5 2.875 -2 2 C-1.34 1.34 -0.68 0.68 0 0 Z " fill="#186CFB" transform="translate(651,468)"/>
<path d="M0 0 C3 0 3 0 4.82421875 1.6796875 C5.43910156 2.40414063 6.05398437 3.12859375 6.6875 3.875 C7.31011719 4.59429687 7.93273437 5.31359375 8.57421875 6.0546875 C10 8 10 8 10 10 C8.68 10 7.36 10 6 10 C4.296875 7.8125 4.296875 7.8125 2.75 5 C2.22921875 4.071875 1.7084375 3.14375 1.171875 2.1875 C0.78515625 1.465625 0.3984375 0.74375 0 0 Z " fill="#1A6EFD" transform="translate(222,390)"/>
<path d="M0 0 C3.03852705 1.40976705 5.5939595 3.08870228 8.25 5.125 C8.95640625 5.66382813 9.6628125 6.20265625 10.390625 6.7578125 C10.92171875 7.16773438 11.4528125 7.57765625 12 8 C11.01 8.33 10.02 8.66 9 9 C6.73828125 7.63671875 6.73828125 7.63671875 4.3125 5.6875 C3.50425781 5.05199219 2.69601562 4.41648437 1.86328125 3.76171875 C1.24839844 3.18035156 0.63351562 2.59898437 0 2 C0 1.34 0 0.68 0 0 Z " fill="#1869FC" transform="translate(643,674)"/>
<path d="M0 0 C4.97209562 1.76429199 9.43438061 4.3939166 14 7 C11.40927388 7.97226335 10.30300917 8.11611108 7.67578125 7.109375 C6.89589844 6.66078125 6.11601562 6.2121875 5.3125 5.75 C4.52488281 5.31171875 3.73726562 4.8734375 2.92578125 4.421875 C1 3 1 3 0 0 Z " fill="#1C6CFA" transform="translate(213,474)"/>
<path d="M0 0 C4.51045941 2.46025059 8.18504423 5.60282037 12 9 C11.01 9.33 10.02 9.66 9 10 C6.9921875 8.671875 6.9921875 8.671875 4.875 6.75 C4.17117187 6.12609375 3.46734375 5.5021875 2.7421875 4.859375 C1 3 1 3 0 0 Z " fill="#1A6CFB" transform="translate(184,452)"/>
<path d="M0 0 C3.03852705 1.40976705 5.5939595 3.08870228 8.25 5.125 C8.95640625 5.66382813 9.6628125 6.20265625 10.390625 6.7578125 C10.92171875 7.16773438 11.4528125 7.57765625 12 8 C11.01 8.33 10.02 8.66 9 9 C6.9921875 7.890625 6.9921875 7.890625 4.875 6.25 C4.17117188 5.71890625 3.46734375 5.1878125 2.7421875 4.640625 C1 3 1 3 0 0 Z " fill="#1B6CFC" transform="translate(668,693)"/>
<path d="M0 0 C-1.36508501 3.11728368 -2.86919698 5.08663738 -5.4375 7.3125 C-6.03433594 7.84488281 -6.63117188 8.37726563 -7.24609375 8.92578125 C-7.82488281 9.28027344 -8.40367187 9.63476562 -9 10 C-9.99 9.67 -10.98 9.34 -12 9 C-10.38050958 7.49405319 -8.75424026 5.99539332 -7.125 4.5 C-6.22007812 3.6646875 -5.31515625 2.829375 -4.3828125 1.96875 C-2 0 -2 0 0 0 Z " fill="#176AFD" transform="translate(473,469)"/>
<path d="M0 0 C4.53652018 1.74481545 7.87067892 3.11964186 11 7 C11 7.66 11 8.32 11 9 C7.03935893 7.25731793 3.25563451 4.85325271 0 2 C0 1.34 0 0.68 0 0 Z " fill="#176DFD" transform="translate(665,597)"/>
<path d="M0 0 C6.44070471 -0.10655578 12.62641289 0.03794912 19 1 C19 1.33 19 1.66 19 2 C14.38 2.33 9.76 2.66 5 3 C5 2.67 5 2.34 5 2 C3.35 1.67 1.7 1.34 0 1 C0 0.67 0 0.34 0 0 Z " fill="#3082FA" transform="translate(294,557)"/>
<path d="M0 0 C3.51098025 4.01254885 5.76537994 8.20983041 8 13 C4.90030982 11.68458526 3.3757267 10.57969377 1.75 7.625 C1.41484375 7.03976562 1.0796875 6.45453125 0.734375 5.8515625 C0 4 0 4 0 0 Z " fill="#1D6CFA" transform="translate(151,409)"/>
<path d="M0 0 C0.33 0.99 0.66 1.98 1 3 C-1.80804268 5.96404505 -4.18315774 8.44499019 -8 10 C-6.34908222 5.70761377 -3.26245434 3.1206085 0 0 Z " fill="#196AFC" transform="translate(423,833)"/>
<path d="M0 0 C4.61513112 1.31860889 8.09897612 3.21355437 12 6 C10.4375 6.75 10.4375 6.75 8 7 C5.45280141 5.97667131 3.13666413 4.72727704 1 3 C0.67 2.01 0.34 1.02 0 0 Z " fill="#1C6EFD" transform="translate(340,638)"/>
<path d="M0 0 C4.60139641 1.48868707 7.50227094 3.74629855 11 7 C11 7.66 11 8.32 11 9 C7.03935893 7.25731793 3.25563451 4.85325271 0 2 C0 1.34 0 0.68 0 0 Z " fill="#166CFE" transform="translate(590,537)"/>
<path d="M0 0 C5.03985731 0.44469329 7.37634988 2.71343362 11 6 C10.67 6.66 10.34 7.32 10 8 C5.43041625 6.02677065 2.86536704 4.07763771 0 0 Z " fill="#1A6CFC" transform="translate(525,503)"/>
<path d="M0 0 C2.97 0.99 5.94 1.98 9 3 C9 3.66 9 4.32 9 5 C10.32 5.66 11.64 6.32 13 7 C8.14036821 6.39254603 4.2594482 4.27241033 0 2 C0 1.34 0 0.68 0 0 Z " fill="#176DFD" transform="translate(253,415)"/>
<path d="M0 0 C4.38462134 0.50109958 6.8000997 1.98295115 10 5 C10 5.66 10 6.32 10 7 C7.29068581 6.84518205 5.53415961 6.51827919 3.5546875 4.59765625 C2.32320358 3.10228292 1.1570163 1.5537076 0 0 Z " fill="#1B70FC" transform="translate(779,689)"/>
<path d="M0 0 C3.63 0 7.26 0 11 0 C11 0.66 11 1.32 11 2 C11.99 2.33 12.98 2.66 14 3 C12.04098546 2.88617347 10.0827662 2.75858875 8.125 2.625 C7.03445313 2.55539062 5.94390625 2.48578125 4.8203125 2.4140625 C2 2 2 2 0 0 Z " fill="#166DFE" transform="translate(322,561)"/>
<path d="M0 0 C-1.14453125 1.48828125 -1.14453125 1.48828125 -3 3 C-5.69921875 3.29296875 -5.69921875 3.29296875 -8.6875 3.1875 C-9.68136719 3.16042969 -10.67523438 3.13335937 -11.69921875 3.10546875 C-12.45847656 3.07066406 -13.21773438 3.03585937 -14 3 C-9.11521152 0.50693368 -5.53108342 -0.12570644 0 0 Z " fill="#176CFE" transform="translate(338,493)"/>
<path d="M0 0 C1.32 0.33 2.64 0.66 4 1 C-0.455 4.465 -0.455 4.465 -5 8 C-5.66 7.67 -6.32 7.34 -7 7 C-4.78071806 4.09197539 -3.07030857 2.04687238 0 0 Z " fill="#196EFC" transform="translate(691,328)"/>
<path d="M0 0 C1.23593891 3.70781672 0.5678132 4.67510253 -0.9375 8.1875 C-1.31777344 9.08855469 -1.69804687 9.98960937 -2.08984375 10.91796875 C-2.54037109 11.94857422 -2.54037109 11.94857422 -3 13 C-3.33 13 -3.66 13 -4 13 C-3.40546697 3.40546697 -3.40546697 3.40546697 0 0 Z " fill="#1D6DF9" transform="translate(144,263)"/>
<path d="M0 0 C2.68092691 2.68092691 2.38670257 4.39167363 2.625 8.125 C2.69976562 9.22070312 2.77453125 10.31640625 2.8515625 11.4453125 C2.90054688 12.28835938 2.94953125 13.13140625 3 14 C2.67 13.01 2.34 12.02 2 11 C1.34 11 0.68 11 0 11 C0 7.37 0 3.74 0 0 Z " fill="#1667FC" transform="translate(137,753)"/>
<path d="M0 0 C0.33 0 0.66 0 1 0 C0.58846263 4.97093824 0.20399168 9.44508386 -2 14 C-2.33 14 -2.66 14 -3 14 C-3.29341888 8.32723489 -3.00559652 5.00932754 0 0 Z " fill="#1668FC" transform="translate(142,675)"/>
<path d="M0 0 C2.64 0 5.28 0 8 0 C6.58480285 2.0343459 5.45017877 2.90410393 3.01953125 3.421875 C1.01823046 3.66273952 -0.9909944 3.83532741 -3 4 C-2.67 3.34 -2.34 2.68 -2 2 C-1.34 2 -0.68 2 0 2 C0 1.34 0 0.68 0 0 Z " fill="#186AFD" transform="translate(265,632)"/>
<path d="M0 0 C-4.10457614 2.98514628 -6.97745369 3.2954439 -12 3 C-11 1 -11 1 -9.2578125 0.33203125 C-8.55398438 0.16058594 -7.85015625 -0.01085937 -7.125 -0.1875 C-6.42632812 -0.36667969 -5.72765625 -0.54585938 -5.0078125 -0.73046875 C-3 -1 -3 -1 0 0 Z " fill="#1668FE" transform="translate(351,490)"/>
<path d="M0 0 C-1.48781815 3.78717347 -3.61988409 5.77407001 -7 8 C-7.99 7.67 -8.98 7.34 -10 7 C-8.71372289 5.82739389 -7.42080217 4.6620717 -6.125 3.5 C-5.04605469 2.52546875 -5.04605469 2.52546875 -3.9453125 1.53125 C-2 0 -2 0 0 0 Z " fill="#1A6CFB" transform="translate(716,414)"/>
<path d="M0 0 C0.33 0.99 0.66 1.98 1 3 C-1.64 5.31 -4.28 7.62 -7 10 C-7.66 9.34 -8.32 8.68 -9 8 C-6.03 5.36 -3.06 2.72 0 0 Z " fill="#1B6DF9" transform="translate(686,438)"/>
<path d="M0 0 C2.76276177 0.52268466 5.3260876 1.10869587 8 2 C8 3.65 8 5.3 8 7 C6 7 6 7 3.4375 4.625 C1 2 1 2 0 0 Z " fill="#1A70FD" transform="translate(451,433)"/>
<path d="M0 0 C2.64752004 2.57784846 4.94432065 4.91648098 7 8 C6.34 8.66 5.68 9.32 5 10 C0 4.5 0 4.5 0 0 Z " fill="#2474FA" transform="translate(160,424)"/>
<path d="M0 0 C0.66 0.33 1.32 0.66 2 1 C0.03681826 4.53372712 -2.04070881 7.24479785 -5 10 C-5.66 9.67 -6.32 9.34 -7 9 C-5.03681826 5.46627288 -2.95929119 2.75520215 0 0 Z " fill="#1569FC" transform="translate(236,252)"/>
<path d="M0 0 C0 0.66 0 1.32 0 2 C-3.47325181 3.1577506 -6.36067448 3.06866652 -10 3 C-10 2.34 -10 1.68 -10 1 C-6.61981469 -0.04005702 -3.5219721 -0.08004482 0 0 Z " fill="#1A70FC" transform="translate(328,817)"/>
<path d="M0 0 C0.66 0.33 1.32 0.66 2 1 C-0.80804268 3.96404505 -3.18315774 6.44499019 -7 8 C-7 7.01 -7 6.02 -7 5 C-5.46875 3.61328125 -5.46875 3.61328125 -3.5 2.3125 C-2.8503125 1.87550781 -2.200625 1.43851563 -1.53125 0.98828125 C-1.0259375 0.66214844 -0.520625 0.33601562 0 0 Z " fill="#1B6FFE" transform="translate(475,605)"/>
<path d="M0 0 C3.82097239 0.53069061 6.06171403 1.49701566 9 4 C8.67 4.99 8.34 5.98 8 7 C6.66382648 6.02471263 5.3311249 5.04466681 4 4.0625 C3.2575 3.51722656 2.515 2.97195313 1.75 2.41015625 C1.1725 1.94480469 0.595 1.47945312 0 1 C0 0.67 0 0.34 0 0 Z " fill="#186DFC" transform="translate(677,607)"/>
<path d="M0 0 C-2.51699845 2.51699845 -4.57554146 3.10964078 -8 4 C-10.375 3.625 -10.375 3.625 -12 3 C-11.34 3 -10.68 3 -10 3 C-10 2.34 -10 1.68 -10 1 C-6.52674819 -0.1577506 -3.63932552 -0.06866652 0 0 Z " fill="#186BFC" transform="translate(256,565)"/>
<path d="M0 0 C7.50769231 -0.36923077 7.50769231 -0.36923077 10 1.5 C10.495 2.2425 10.495 2.2425 11 3 C3.57142857 3.28571429 3.57142857 3.28571429 0 1 C0 0.67 0 0.34 0 0 Z " fill="#166BFD" transform="translate(271,423)"/>
<path d="M0 0 C1.32 0.33 2.64 0.66 4 1 C1.36 2.98 -1.28 4.96 -4 7 C-4.66 6.67 -5.32 6.34 -6 6 C-4 4 -2 2 0 0 Z " fill="#196EFC" transform="translate(724,304)"/>
<path d="M0 0 C0.99 0.33 1.98 0.66 3 1 C0.36 2.98 -2.28 4.96 -5 7 C-5.66 6.67 -6.32 6.34 -7 6 C-2.25 1.125 -2.25 1.125 0 0 Z " fill="#186EFC" transform="translate(736,296)"/>
<path d="M0 0 C-1.28524261 0.86380259 -2.57842419 1.71580369 -3.875 2.5625 C-4.59429688 3.03816406 -5.31359375 3.51382813 -6.0546875 4.00390625 C-6.69664062 4.33261719 -7.33859375 4.66132812 -8 5 C-8.66 4.67 -9.32 4.34 -10 4 C-7.06485676 -0.40271486 -5.03472644 -1.47460607 0 0 Z " fill="#2779F7" transform="translate(831,754)"/>
<path d="M0 0 C4.40114397 0.50298788 6.71195019 2.08772731 10 5 C3.49955237 4.38675022 3.49955237 4.38675022 1.0625 2.5 C0 1 0 1 0 0 Z " fill="#1A6CFC" transform="translate(749,753)"/>
<path d="M0 0 C4.84455959 2.37823834 4.84455959 2.37823834 7 4 C7.9375 6.75 7.9375 6.75 8 9 C6.84775972 8.07038578 5.70340824 7.1309875 4.5625 6.1875 C3.60537109 5.40439453 3.60537109 5.40439453 2.62890625 4.60546875 C1 3 1 3 0 0 Z " fill="#2E7EF7" transform="translate(172,441)"/>
<path d="M0 0 C-1.41519715 2.0343459 -2.54982123 2.90410393 -4.98046875 3.421875 C-6.98176954 3.66273952 -8.9909944 3.83532741 -11 4 C-7.64191281 0.32209498 -4.88401581 -0.13200043 0 0 Z " fill="#186DFC" transform="translate(336,420)"/>
<path d="M0 0 C0.33 0 0.66 0 1 0 C1.125 6.75 1.125 6.75 0 9 C-0.66 9 -1.32 9 -2 9 C-2.33 9.66 -2.66 10.32 -3 11 C-2.69217504 9.35328588 -2.37860766 7.70764424 -2.0625 6.0625 C-1.88847656 5.14597656 -1.71445312 4.22945313 -1.53515625 3.28515625 C-1 1 -1 1 0 0 Z " fill="#1A6AFC" transform="translate(459,379)"/>
<path d="M0 0 C0 3 0 3 -1.75 4.82421875 C-2.4925 5.43910156 -3.235 6.05398437 -4 6.6875 C-4.7425 7.31011719 -5.485 7.93273437 -6.25 8.57421875 C-6.8275 9.04472656 -7.405 9.51523438 -8 10 C-8.66 9.67 -9.32 9.34 -10 9 C-9.0919838 7.86800647 -8.17316174 6.74467637 -7.25 5.625 C-6.73953125 4.99851563 -6.2290625 4.37203125 -5.703125 3.7265625 C-3.91800519 1.91687682 -2.32050356 0.99882545 0 0 Z " fill="#1165FD" transform="translate(191,201)"/>
<path d="M0 0 C0.66 0 1.32 0 2 0 C1.67 2.31 1.34 4.62 1 7 C0.34 7 -0.32 7 -1 7 C-1 7.66 -1 8.32 -1 9 C-1.66 9 -2.32 9 -3 9 C-2.01 6.03 -1.02 3.06 0 0 Z " fill="#186AFC" transform="translate(455,777)"/>
<path d="M0 0 C3.81684226 1.55500981 6.19195732 4.03595495 9 7 C6.75 6.875 6.75 6.875 4 6 C1.6875 2.9375 1.6875 2.9375 0 0 Z " fill="#1769FC" transform="translate(722,733)"/>
<path d="M0 0 C0.99 0.33 1.98 0.66 3 1 C-0.465 3.97 -0.465 3.97 -4 7 C-4.66 6.67 -5.32 6.34 -6 6 C-2.25 1.125 -2.25 1.125 0 0 Z " fill="#1569FD" transform="translate(437,526)"/>
<path d="M0 0 C0.33 0.66 0.66 1.32 1 2 C0.67 2.66 0.34 3.32 0 4 C-0.2275015 5.87056791 -0.40962811 7.74685958 -0.5625 9.625 C-0.64628906 10.62789062 -0.73007812 11.63078125 -0.81640625 12.6640625 C-0.87699219 13.43492187 -0.93757813 14.20578125 -1 15 C-1.33 15 -1.66 15 -2 15 C-2.24900646 13.06494977 -2.47356242 11.12674066 -2.6875 9.1875 C-2.81511719 8.10855469 -2.94273437 7.02960937 -3.07421875 5.91796875 C-3 3 -3 3 -1.51953125 1.11328125 C-1.01808594 0.74589844 -0.51664062 0.37851562 0 0 Z " fill="#3287FB" transform="translate(505,511)"/>
<path d="M0 0 C1.32 0.33 2.64 0.66 4 1 C0.535 3.97 0.535 3.97 -3 7 C-3.66 6.67 -4.32 6.34 -5 6 C-3.35 4.02 -1.7 2.04 0 0 Z " fill="#176CFE" transform="translate(482,489)"/>
<path d="M0 0 C1.32 0.33 2.64 0.66 4 1 C0.535 3.97 0.535 3.97 -3 7 C-3.66 6.67 -4.32 6.34 -5 6 C-3.35 4.02 -1.7 2.04 0 0 Z " fill="#186DFD" transform="translate(558,429)"/>
<path d="M0 0 C4.26086957 6.39130435 4.26086957 6.39130435 3.625 10.3125 C3.41875 10.869375 3.2125 11.42625 3 12 C3 11.01 3 10.02 3 9 C2.34 9 1.68 9 1 9 C-0.4783226 6.04335481 -0.06032783 3.25770263 0 0 Z " fill="#2A7BF8" transform="translate(457,268)"/>
<path d="M0 0 C1.32 0.33 2.64 0.66 4 1 C1.69 2.65 -0.62 4.3 -3 6 C-3.66 5.67 -4.32 5.34 -5 5 C-2.75 2.4375 -2.75 2.4375 0 0 Z " fill="#2875FA" transform="translate(389,863)"/>
<path d="M0 0 C0.66 0 1.32 0 2 0 C5.125 6.625 5.125 6.625 4 10 C1.80902348 6.6659053 0.56545837 3.95820859 0 0 Z " fill="#1769FD" transform="translate(384,682)"/>
<path d="M0 0 C3.68754757 0.49831724 5.60490662 1.10067643 8 4 C7.67 4.99 7.34 5.98 7 7 C5.83040013 6.02433888 4.66438823 5.044375 3.5 4.0625 C2.8503125 3.51722656 2.200625 2.97195313 1.53125 2.41015625 C1.0259375 1.94480469 0.520625 1.47945312 0 1 C0 0.67 0 0.34 0 0 Z " fill="#186DFC" transform="translate(768,680)"/>
<path d="M0 0 C-1.36983503 3.16115776 -1.9890638 3.9927092 -5 6 C-5.99 6 -6.98 6 -8 6 C-8 5.34 -8 4.68 -8 4 C-2.58823529 0 -2.58823529 0 0 0 Z " fill="#186BFD" transform="translate(248,643)"/>
<path d="M0 0 C0.66 1.32 1.32 2.64 2 4 C-0.31 5.32 -2.62 6.64 -5 8 C-3.62845496 5.04590299 -2.01136276 2.55991624 0 0 Z " fill="#2779F8" transform="translate(171,619)"/>
<path d="M0 0 C0.33 0.66 0.66 1.32 1 2 C-0.98 4.31 -2.96 6.62 -5 9 C-5.33 8.34 -5.66 7.68 -6 7 C-2.25 1.125 -2.25 1.125 0 0 Z " fill="#1468FD" transform="translate(537,528)"/>
<path d="M0 0 C-1.45255699 3.82946843 -3.42895561 5.12050295 -7 7 C-7 6.01 -7 5.02 -7 4 C-2.65714286 0 -2.65714286 0 0 0 Z " fill="#196BFC" transform="translate(460,480)"/>
<path d="M0 0 C0.66 0.33 1.32 0.66 2 1 C0.02 2.98 -1.96 4.96 -4 7 C-4.99 6.67 -5.98 6.34 -7 6 C-4.69 4.02 -2.38 2.04 0 0 Z " fill="#196BFA" transform="translate(696,430)"/>
<path d="M0 0 C0.33 0 0.66 0 1 0 C1 2.64 1 5.28 1 8 C0.34 8 -0.32 8 -1 8 C-1.33 8.66 -1.66 9.32 -2 10 C-1.85950482 8.52031676 -1.71245174 7.04125484 -1.5625 5.5625 C-1.48128906 4.73878906 -1.40007812 3.91507812 -1.31640625 3.06640625 C-1 1 -1 1 0 0 Z " fill="#176BFE" transform="translate(462,368)"/>
<path d="M0 0 C3 2 3 2 3.51171875 3.9453125 C3.67447917 5.96354167 3.83723958 7.98177083 4 10 C3.34 9.67 2.68 9.34 2 9 C1.3671875 6.93359375 1.3671875 6.93359375 0.875 4.4375 C0.70742187 3.61121094 0.53984375 2.78492188 0.3671875 1.93359375 C0.24601563 1.29550781 0.12484375 0.65742188 0 0 Z " fill="#186AFE" transform="translate(205,356)"/>
<path d="M0 0 C1.32 0 2.64 0 4 0 C5.75 2.5 5.75 2.5 7 5 C4.625 4.75 4.625 4.75 2 4 C0.6875 1.9375 0.6875 1.9375 0 0 Z " fill="#1B6FFD" transform="translate(354,248)"/>
<path d="M0 0 C6.52307692 0.61538462 6.52307692 0.61538462 8.9375 2.5625 C9.288125 3.036875 9.63875 3.51125 10 4 C9.01 4.495 9.01 4.495 8 5 C6.0546875 4.22265625 6.0546875 4.22265625 3.875 3.0625 C3.15054687 2.68222656 2.42609375 2.30195313 1.6796875 1.91015625 C1.12539063 1.60980469 0.57109375 1.30945313 0 1 C0 0.67 0 0.34 0 0 Z " fill="#1A6EFC" transform="translate(370,178)"/>
<path d="M0 0 C6.57403846 -0.37211538 6.57403846 -0.37211538 8.73046875 1.51171875 C9.35888672 2.24841797 9.35888672 2.24841797 10 3 C8.5199159 2.88637738 7.04089926 2.75877092 5.5625 2.625 C4.73878906 2.55539063 3.91507812 2.48578125 3.06640625 2.4140625 C2.38449219 2.27742187 1.70257813 2.14078125 1 2 C0.67 1.34 0.34 0.68 0 0 Z " fill="#176DFD" transform="translate(340,167)"/>
<path d="M0 0 C2.31 1.98 4.62 3.96 7 6 C6.67 6.66 6.34 7.32 6 8 C1.3125 4.38671875 1.3125 4.38671875 0 3 C0 2.01 0 1.02 0 0 Z " fill="#186DFD" transform="translate(174,832)"/>
<path d="M0 0 C1.32 0.33 2.64 0.66 4 1 C4 1.66 4 2.32 4 3 C5.32 3.66 6.64 4.32 8 5 C6.68 5.33 5.36 5.66 4 6 C2.68 4.02 1.36 2.04 0 0 Z " fill="#186AFC" transform="translate(659,686)"/>
<path d="M0 0 C2.78211944 0.37596209 4.5879284 0.67318459 6.8125 2.4375 C8 4 8 4 8 6 C4.63408134 4.55746343 2.48952921 2.66735273 0 0 Z " fill="#196DFC" transform="translate(688,616)"/>
<path d="M0 0 C0 3 0 3 -2 6 C-2.66 6 -3.32 6 -4 6 C-4 6.66 -4 7.32 -4 8 C-4.66 7.67 -5.32 7.34 -6 7 C-4.19587357 3.73539027 -3.16605307 2.11070205 0 0 Z " fill="#1568FC" transform="translate(177,614)"/>
<path d="M0 0 C0.6875 1.8125 0.6875 1.8125 1 4 C-0.375 5.75 -0.375 5.75 -2 7 C-2.33 7 -2.66 7 -3 7 C-3.1875 4.625 -3.1875 4.625 -3 2 C-2.01 1.34 -1.02 0.68 0 0 Z " fill="#196DFD" transform="translate(451,400)"/>
<path d="M0 0 C-0.6875 1.9375 -0.6875 1.9375 -2 4 C-4.625 4.75 -4.625 4.75 -7 5 C-6.1875 3.0625 -6.1875 3.0625 -5 1 C-2 0 -2 0 0 0 Z " fill="#1A6BFD" transform="translate(246,247)"/>
<path d="M0 0 C0 0.66 0 1.32 0 2 C0.99 2.33 1.98 2.66 3 3 C-0.96 2.67 -4.92 2.34 -9 2 C-9 1.67 -9 1.34 -9 1 C-5.94152152 0.45627049 -3.11227195 0 0 0 Z " fill="#3181F9" transform="translate(280,889)"/>
<path d="M0 0 C-0.99 0.495 -0.99 0.495 -2 1 C-2 1.66 -2 2.32 -2 3 C-4.31 3 -6.62 3 -9 3 C-7.14340032 -0.71319936 -3.69365381 -0.09982848 0 0 Z " fill="#186BFD" transform="translate(349,884)"/>
<path d="M0 0 C0.66 0 1.32 0 2 0 C1.38722388 2.96175123 0.74627478 4.38058783 -1 7 C-1.66 7 -2.32 7 -3 7 C-1.125 1.125 -1.125 1.125 0 0 Z " fill="#1C6EFB" transform="translate(446,799)"/>
<path d="M0 0 C0.33 0.66 0.66 1.32 1 2 C1.66 2 2.32 2 3 2 C3 4.64 3 7.28 3 10 C0.70366176 6.55549263 0.45983515 4.06187717 0 0 Z " fill="#1567FD" transform="translate(207,750)"/>
<path d="M0 0 C0 0.66 0 1.32 0 2 C-1.75 3.6875 -1.75 3.6875 -4 5 C-6.25 4.6875 -6.25 4.6875 -8 4 C-3.375 0 -3.375 0 0 0 Z " fill="#186DFD" transform="translate(504,586)"/>
<path d="M0 0 C0 0.66 0 1.32 0 2 C-2.3125 4.1875 -2.3125 4.1875 -5 6 C-5.99 5.67 -6.98 5.34 -8 5 C-2.25 0 -2.25 0 0 0 Z " fill="#196CFB" transform="translate(626,492)"/>
<path d="M0 0 C0 0.66 0 1.32 0 2 C-2.3125 4.1875 -2.3125 4.1875 -5 6 C-5.99 5.67 -6.98 5.34 -8 5 C-2.25 0 -2.25 0 0 0 Z " fill="#196BFC" transform="translate(642,478)"/>
<path d="M0 0 C3.83736322 0.95934081 4.59660228 1.23609263 7 4 C6.67 4.99 6.34 5.98 6 7 C4.02 4.69 2.04 2.38 0 0 Z " fill="#176CFD" transform="translate(232,401)"/>
<path d="M0 0 C0.33 0 0.66 0 1 0 C0.67 2.31 0.34 4.62 0 7 C-0.99 7 -1.98 7 -3 7 C-3.33 7.66 -3.66 8.32 -4 9 C-3.35499066 5.51694958 -1.95865224 2.93797836 0 0 Z " fill="#196DFC" transform="translate(212,284)"/>
<path d="M0 0 C-5.2734375 3.22265625 -5.2734375 3.22265625 -7 4 C-7.66 3.67 -8.32 3.34 -9 3 C-7 0 -7 0 -4.5 -0.75 C-2 -1 -2 -1 0 0 Z " fill="#186DFA" transform="translate(761,284)"/>
<path d="M0 0 C-1.125 1.5 -1.125 1.5 -3 3 C-6.1875 3.1875 -6.1875 3.1875 -9 3 C-7.14340032 -0.71319936 -3.69365381 -0.09982848 0 0 Z " fill="#1669FD" transform="translate(273,235)"/>
<path d="M0 0 C0.66 0 1.32 0 2 0 C0.8141763 3.37503669 -0.27573689 5.64722731 -3 8 C-2.45276317 4.62537285 -1.9451 2.91765 0 0 Z " fill="#1A6EFD" transform="translate(385,766)"/>
<path d="M0 0 C0.66 0.33 1.32 0.66 2 1 C0.35 2.65 -1.3 4.3 -3 6 C-3.99 5.67 -4.98 5.34 -6 5 C-4.02 3.35 -2.04 1.7 0 0 Z " fill="#1667FD" transform="translate(464,613)"/>
<path d="M0 0 C3.36591866 1.44253657 5.51047079 3.33264727 8 6 C5.6875 5.8125 5.6875 5.8125 3 5 C1.1875 2.4375 1.1875 2.4375 0 0 Z " fill="#1263FC" transform="translate(544,600)"/>
<path d="M0 0 C0.99 0 1.98 0 3 0 C1.86695008 3.39914975 0.87481525 4.05254451 -2 6 C-2.66 5.67 -3.32 5.34 -4 5 C-2.1875 2.5 -2.1875 2.5 0 0 Z " fill="#156BFE" transform="translate(445,519)"/>
<path d="M0 0 C2.25 0.25 2.25 0.25 4 1 C2.02 2.32 0.04 3.64 -2 5 C-2.66 4.67 -3.32 4.34 -4 4 C-2.25 1.9375 -2.25 1.9375 0 0 Z " fill="#1569FD" transform="translate(353,409)"/>
<path d="M0 0 C-1.15173355 2.46800047 -2.04783565 4.04783565 -4 6 C-4.99 5.67 -5.98 5.34 -7 5 C-2.25 0 -2.25 0 0 0 Z " fill="#1667FB" transform="translate(770,367)"/>
<path d="M0 0 C0.99 0.33 1.98 0.66 3 1 C0.03 3.475 0.03 3.475 -3 6 C-3.66 5.67 -4.32 5.34 -5 5 C-3.35 3.35 -1.7 1.7 0 0 Z " fill="#1569FD" transform="translate(658,353)"/>
<path d="M0 0 C3.77545388 1.09068668 6.47043472 1.9083091 9 5 C7.68428397 4.7452486 6.37239624 4.47065859 5.0625 4.1875 C4.33160156 4.03667969 3.60070312 3.88585937 2.84765625 3.73046875 C2.23792969 3.48941406 1.62820313 3.24835938 1 3 C0.67 2.01 0.34 1.02 0 0 Z " fill="#1568FE" transform="translate(342,241)"/>
<path d="M0 0 C0 3 0 3 -2.5 5.6875 C-3.325 6.450625 -4.15 7.21375 -5 8 C-4.64950425 4.75791433 -4.43778819 3.38472296 -1.9375 1.1875 C-1.298125 0.795625 -0.65875 0.40375 0 0 Z " fill="#1B6CFA" transform="translate(169,223)"/>
<path d="M0 0 C0.33 0 0.66 0 1 0 C1 2.64 1 5.28 1 8 C0.67 8 0.34 8 0 8 C0 5.36 0 2.72 0 0 Z " fill="#387EE5" transform="translate(128,336)"/>
<path d="M0 0 C0.33 0 0.66 0 1 0 C1 2.31 1 4.62 1 7 C0.67 7 0.34 7 0 7 C0 4.69 0 2.38 0 0 Z " fill="#387CE4" transform="translate(128,313)"/>
<path d="M0 0 C0.33 0 0.66 0 1 0 C1 1.65 1 3.3 1 5 C0.67 5 0.34 5 0 5 C0 3.35 0 1.7 0 0 Z " fill="#357AE3" transform="translate(130,355)"/>
<path d="M0 0 C0.99 1.485 0.99 1.485 2 3 C1.34 3 0.68 3 0 3 C0 2.01 0 1.02 0 0 Z " fill="#3177E3" transform="translate(147,796)"/>
<path d="M0 0 C1 4 1 4 1 4 Z " fill="#367BE5" transform="translate(129,349)"/>
<path d="M0 0 C3 1 3 1 3 1 Z " fill="#3074E4" transform="translate(307,894)"/>
<path d="" fill="#2D7FFA" transform="translate(0,0)"/>
<path d="M0 0 C0.33 0.66 0.66 1.32 1 2 C0.34 1.67 -0.32 1.34 -1 1 C-0.67 0.67 -0.34 0.34 0 0 Z " fill="#307BEE" transform="translate(649,682)"/>
<path d="M0 0 C0.99 0.495 0.99 0.495 2 1 C1.01 1.495 1.01 1.495 0 2 C0 1.34 0 0.68 0 0 Z " fill="#317CF3" transform="translate(579,630)"/>
<path d="M0 0 C3 1 3 1 3 1 Z " fill="#327DF2" transform="translate(240,491)"/>
<path d="M0 0 C3 1 3 1 3 1 Z " fill="#3082F6" transform="translate(297,424)"/>
<path d="" fill="#3586FA" transform="translate(0,0)"/>
<path d="M0 0 C0.66 0 1.32 0 2 0 C1.67 0.66 1.34 1.32 1 2 C0.67 1.34 0.34 0.68 0 0 Z " fill="#2E7FF9" transform="translate(337,242)"/>
<path d="M0 0 C0.66 0.66 1.32 1.32 2 2 C1.34 2 0.68 2 0 2 C0 1.34 0 0.68 0 0 Z " fill="#3479E4" transform="translate(220,176)"/>
<path d="M0 0 C2 1 2 1 2 1 Z " fill="#3177E6" transform="translate(312,894)"/>
<path d="M0 0 C2 1 2 1 2 1 Z " fill="#3076E7" transform="translate(291,894)"/>
<path d="M0 0 C2 1 2 1 2 1 Z " fill="#3278E8" transform="translate(281,893)"/>
<path d="M0 0 C2 1 2 1 2 1 Z " fill="#3277E8" transform="translate(248,886)"/>
<path d="M0 0 C2 1 2 1 2 1 Z " fill="#3276E2" transform="translate(243,886)"/>
<path d="M0 0 C2 1 2 1 2 1 Z " fill="#3176E6" transform="translate(243,884)"/>
<path d="M0 0 C2 1 2 1 2 1 Z " fill="#3278E3" transform="translate(211,870)"/>
<path d="M0 0 C2 1 2 1 2 1 Z " fill="#3378E5" transform="translate(208,867)"/>
<path d="" fill="#3377E3" transform="translate(0,0)"/>
<path d="M0 0 C2 1 2 1 2 1 Z " fill="#2F80F4" transform="translate(278,816)"/>
<path d="" fill="#3277E2" transform="translate(0,0)"/>
<path d="M0 0 C2 1 2 1 2 1 Z " fill="#2D7EF9" transform="translate(339,809)"/>
<path d="" fill="#3479E2" transform="translate(0,0)"/>
<path d="M0 0 C2 1 2 1 2 1 Z " fill="#3179EA" transform="translate(770,765)"/>
<path d="M0 0 C2 1 2 1 2 1 Z " fill="#3278E3" transform="translate(761,762)"/>
<path d="M0 0 C2 1 2 1 2 1 Z " fill="#3078E8" transform="translate(739,750)"/>
<path d="M0 0 C2 1 2 1 2 1 Z " fill="#2E78EC" transform="translate(707,726)"/>
<path d="" fill="#317AEB" transform="translate(0,0)"/>
<path d="" fill="#2D7EFA" transform="translate(0,0)"/>
<path d="M0 0 C2 1 2 1 2 1 Z " fill="#3079ED" transform="translate(675,702)"/>
<path d="" fill="#2F7EFB" transform="translate(0,0)"/>
<path d="M0 0 C2 1 2 1 2 1 Z " fill="#2D7EFB" transform="translate(330,637)"/>
<path d="M0 0 C2 1 2 1 2 1 Z " fill="#337DF1" transform="translate(245,492)"/>
<path d="M0 0 C2 1 2 1 2 1 Z " fill="#317DED" transform="translate(228,487)"/>
<path d="" fill="#3082FD" transform="translate(0,0)"/>
<path d="M0 0 C2 1 2 1 2 1 Z " fill="#357CE8" transform="translate(189,463)"/>
<path d="" fill="#3479E8" transform="translate(0,0)"/>
<path d="M0 0 C2 1 2 1 2 1 Z " fill="#3082F6" transform="translate(337,416)"/>
<path d="M0 0 C2 1 2 1 2 1 Z " fill="#2E7EF5" transform="translate(259,416)"/>
<path d="" fill="#3478E3" transform="translate(0,0)"/>
<path d="" fill="#357CE4" transform="translate(0,0)"/>
<path d="" fill="#347AE3" transform="translate(0,0)"/>
<path d="M0 0 C2 1 2 1 2 1 Z " fill="#2F79EB" transform="translate(710,312)"/>
<path d="M0 0 C2 1 2 1 2 1 Z " fill="#3179EA" transform="translate(705,312)"/>
<path d="" fill="#337AE7" transform="translate(0,0)"/>
<path d="M0 0 C2 1 2 1 2 1 Z " fill="#317AE5" transform="translate(758,280)"/>
<path d="" fill="#2F7FF8" transform="translate(0,0)"/>
<path d="" fill="#3183F8" transform="translate(0,0)"/>
<path d="M0 0 C2 1 2 1 2 1 Z " fill="#3379E3" transform="translate(444,240)"/>
<path d="M0 0 C2 1 2 1 2 1 Z " fill="#2F7EF7" transform="translate(323,238)"/>
<path d="M0 0 C2 1 2 1 2 1 Z " fill="#317AE2" transform="translate(320,160)"/>
<path d="" fill="#202225" transform="translate(0,0)"/>
<path d="" fill="#3277E4" transform="translate(0,0)"/>
<path d="" fill="#3077E8" transform="translate(0,0)"/>
<path d="" fill="#3579E6" transform="translate(0,0)"/>
<path d="" fill="#3178E6" transform="translate(0,0)"/>
<path d="" fill="#347AE6" transform="translate(0,0)"/>
<path d="" fill="#3578E5" transform="translate(0,0)"/>
<path d="" fill="#3376E3" transform="translate(0,0)"/>
<path d="" fill="#3276E2" transform="translate(0,0)"/>
<path d="" fill="#3576E0" transform="translate(0,0)"/>
<path d="" fill="#3377E3" transform="translate(0,0)"/>
<path d="" fill="#2F75E6" transform="translate(0,0)"/>
<path d="" fill="#3378E1" transform="translate(0,0)"/>
<path d="" fill="#367AE4" transform="translate(0,0)"/>
<path d="" fill="#3176E6" transform="translate(0,0)"/>
<path d="" fill="#357AE4" transform="translate(0,0)"/>
<path d="" fill="#2F74E5" transform="translate(0,0)"/>
<path d="" fill="#357AE7" transform="translate(0,0)"/>
<path d="" fill="#3477E4" transform="translate(0,0)"/>
<path d="" fill="#357AE4" transform="translate(0,0)"/>
<path d="" fill="#3277E4" transform="translate(0,0)"/>
<path d="" fill="#3578E6" transform="translate(0,0)"/>
<path d="" fill="#3578E3" transform="translate(0,0)"/>
<path d="" fill="#3079E3" transform="translate(0,0)"/>
<path d="" fill="#3082F7" transform="translate(0,0)"/>
<path d="" fill="#3081F7" transform="translate(0,0)"/>
<path d="" fill="#3678E3" transform="translate(0,0)"/>
<path d="" fill="#357BE4" transform="translate(0,0)"/>
<path d="" fill="#2F7EF9" transform="translate(0,0)"/>
<path d="" fill="#2E81F6" transform="translate(0,0)"/>
<path d="" fill="#3579E3" transform="translate(0,0)"/>
<path d="" fill="#3479E3" transform="translate(0,0)"/>
<path d="" fill="#3176E3" transform="translate(0,0)"/>
<path d="" fill="#3075E6" transform="translate(0,0)"/>
<path d="" fill="#2D73E4" transform="translate(0,0)"/>
<path d="" fill="#3177E3" transform="translate(0,0)"/>
<path d="" fill="#3479E3" transform="translate(0,0)"/>
<path d="" fill="#337ADE" transform="translate(0,0)"/>
<path d="" fill="#2F80F9" transform="translate(0,0)"/>
<path d="" fill="#3076DD" transform="translate(0,0)"/>
<path d="" fill="#3177E6" transform="translate(0,0)"/>
<path d="" fill="#3579E0" transform="translate(0,0)"/>
<path d="" fill="#337AE9" transform="translate(0,0)"/>
<path d="" fill="#2D69C1" transform="translate(0,0)"/>
<path d="" fill="#2D67C4" transform="translate(0,0)"/>
<path d="" fill="#2F6DC7" transform="translate(0,0)"/>
<path d="" fill="#2C70CF" transform="translate(0,0)"/>
<path d="" fill="#2F79E6" transform="translate(0,0)"/>
<path d="" fill="#367BE4" transform="translate(0,0)"/>
<path d="" fill="#3079EB" transform="translate(0,0)"/>
<path d="" fill="#3178EB" transform="translate(0,0)"/>
<path d="" fill="#3178ED" transform="translate(0,0)"/>
<path d="" fill="#2E80FA" transform="translate(0,0)"/>
<path d="" fill="#367CE5" transform="translate(0,0)"/>
<path d="" fill="#2E79E9" transform="translate(0,0)"/>
<path d="" fill="#317BED" transform="translate(0,0)"/>
<path d="" fill="#3178EE" transform="translate(0,0)"/>
<path d="" fill="#3079EC" transform="translate(0,0)"/>
<path d="" fill="#317AEF" transform="translate(0,0)"/>
<path d="" fill="#2F78ED" transform="translate(0,0)"/>
<path d="" fill="#317AEC" transform="translate(0,0)"/>
<path d="" fill="#3079EE" transform="translate(0,0)"/>
<path d="" fill="#317AEE" transform="translate(0,0)"/>
<path d="" fill="#307AF1" transform="translate(0,0)"/>
<path d="" fill="#2F7EFC" transform="translate(0,0)"/>
<path d="" fill="#2C7AEC" transform="translate(0,0)"/>
<path d="" fill="#2F83F9" transform="translate(0,0)"/>
<path d="" fill="#2C77E9" transform="translate(0,0)"/>
<path d="" fill="#3079EE" transform="translate(0,0)"/>
<path d="" fill="#327CED" transform="translate(0,0)"/>
<path d="" fill="#327BEC" transform="translate(0,0)"/>
<path d="" fill="#347FF0" transform="translate(0,0)"/>
<path d="" fill="#2D7DF9" transform="translate(0,0)"/>
<path d="" fill="#367AE3" transform="translate(0,0)"/>
<path d="" fill="#3575DD" transform="translate(0,0)"/>
<path d="" fill="#2979EB" transform="translate(0,0)"/>
<path d="" fill="#2F7FF6" transform="translate(0,0)"/>
<path d="" fill="#307AEC" transform="translate(0,0)"/>
<path d="" fill="#2F7FFB" transform="translate(0,0)"/>
<path d="" fill="#317AED" transform="translate(0,0)"/>
<path d="" fill="#2E7CFA" transform="translate(0,0)"/>
<path d="" fill="#2E7EFA" transform="translate(0,0)"/>
<path d="" fill="#307FFC" transform="translate(0,0)"/>
<path d="" fill="#2F7FFC" transform="translate(0,0)"/>
<path d="" fill="#2E79EB" transform="translate(0,0)"/>
<path d="" fill="#2E7AEC" transform="translate(0,0)"/>
<path d="" fill="#2F7AEF" transform="translate(0,0)"/>
<path d="" fill="#327BF0" transform="translate(0,0)"/>
<path d="" fill="#327DF1" transform="translate(0,0)"/>
<path d="" fill="#2F7CF0" transform="translate(0,0)"/>
<path d="" fill="#3181F9" transform="translate(0,0)"/>
<path d="" fill="#2F80FA" transform="translate(0,0)"/>
<path d="" fill="#337EF1" transform="translate(0,0)"/>
<path d="" fill="#3280FA" transform="translate(0,0)"/>
<path d="" fill="#377DE4" transform="translate(0,0)"/>
<path d="" fill="#2E79EE" transform="translate(0,0)"/>
<path d="" fill="#2E82F9" transform="translate(0,0)"/>
<path d="" fill="#3181F9" transform="translate(0,0)"/>
<path d="" fill="#2F81FA" transform="translate(0,0)"/>
<path d="" fill="#2E7FF8" transform="translate(0,0)"/>
<path d="" fill="#317EF8" transform="translate(0,0)"/>
<path d="" fill="#3080FD" transform="translate(0,0)"/>
<path d="" fill="#307EFA" transform="translate(0,0)"/>
<path d="" fill="#337AE7" transform="translate(0,0)"/>
<path d="" fill="#317DF4" transform="translate(0,0)"/>
<path d="" fill="#3181FB" transform="translate(0,0)"/>
<path d="" fill="#307BF3" transform="translate(0,0)"/>
<path d="" fill="#3280F6" transform="translate(0,0)"/>
<path d="" fill="#337AE3" transform="translate(0,0)"/>
<path d="" fill="#317DF4" transform="translate(0,0)"/>
<path d="" fill="#2E7BED" transform="translate(0,0)"/>
<path d="" fill="#337AE2" transform="translate(0,0)"/>
<path d="" fill="#357CE7" transform="translate(0,0)"/>
<path d="" fill="#2E7CF5" transform="translate(0,0)"/>
<path d="" fill="#2C7BED" transform="translate(0,0)"/>
<path d="" fill="#2F7BF8" transform="translate(0,0)"/>
<path d="" fill="#327CF8" transform="translate(0,0)"/>
<path d="" fill="#3379EC" transform="translate(0,0)"/>
<path d="" fill="#2E79EE" transform="translate(0,0)"/>
<path d="" fill="#347DEC" transform="translate(0,0)"/>
<path d="" fill="#2D7EF9" transform="translate(0,0)"/>
<path d="" fill="#327FF9" transform="translate(0,0)"/>
<path d="" fill="#367FEA" transform="translate(0,0)"/>
<path d="" fill="#337EEE" transform="translate(0,0)"/>
<path d="" fill="#3081F9" transform="translate(0,0)"/>
<path d="" fill="#287BF9" transform="translate(0,0)"/>
<path d="" fill="#2B7DF0" transform="translate(0,0)"/>
<path d="" fill="#337FED" transform="translate(0,0)"/>
<path d="" fill="#3183F9" transform="translate(0,0)"/>
<path d="" fill="#3281F9" transform="translate(0,0)"/>
<path d="" fill="#3285FA" transform="translate(0,0)"/>
<path d="" fill="#3280F6" transform="translate(0,0)"/>
<path d="" fill="#3381F2" transform="translate(0,0)"/>
<path d="" fill="#3183FB" transform="translate(0,0)"/>
<path d="" fill="#2D7FF3" transform="translate(0,0)"/>
<path d="" fill="#2F80F8" transform="translate(0,0)"/>
<path d="" fill="#3283FF" transform="translate(0,0)"/>
<path d="" fill="#3585F5" transform="translate(0,0)"/>
<path d="" fill="#3181FD" transform="translate(0,0)"/>
<path d="" fill="#2F7FFE" transform="translate(0,0)"/>
<path d="" fill="#3580F7" transform="translate(0,0)"/>
<path d="" fill="#307FF6" transform="translate(0,0)"/>
<path d="" fill="#3380F5" transform="translate(0,0)"/>
<path d="" fill="#327FF7" transform="translate(0,0)"/>
<path d="" fill="#3281FD" transform="translate(0,0)"/>
<path d="" fill="#3380F6" transform="translate(0,0)"/>
<path d="" fill="#2F80FD" transform="translate(0,0)"/>
<path d="" fill="#2E7BF3" transform="translate(0,0)"/>
<path d="" fill="#317EF9" transform="translate(0,0)"/>
<path d="" fill="#317EF0" transform="translate(0,0)"/>
<path d="" fill="#3180FC" transform="translate(0,0)"/>
<path d="" fill="#3482F8" transform="translate(0,0)"/>
<path d="" fill="#3586F6" transform="translate(0,0)"/>
<path d="" fill="#307CF1" transform="translate(0,0)"/>
<path d="" fill="#3182FC" transform="translate(0,0)"/>
<path d="" fill="#2E82FD" transform="translate(0,0)"/>
<path d="" fill="#3480F0" transform="translate(0,0)"/>
<path d="" fill="#3382F7" transform="translate(0,0)"/>
<path d="" fill="#317FF7" transform="translate(0,0)"/>
<path d="" fill="#2F7EEF" transform="translate(0,0)"/>
<path d="" fill="#2F80FB" transform="translate(0,0)"/>
<path d="" fill="#337BED" transform="translate(0,0)"/>
<path d="" fill="#3083FC" transform="translate(0,0)"/>
<path d="" fill="#307CEE" transform="translate(0,0)"/>
<path d="" fill="#3181FD" transform="translate(0,0)"/>
<path d="" fill="#2C7DFB" transform="translate(0,0)"/>
<path d="" fill="#2E81FA" transform="translate(0,0)"/>
<path d="" fill="#2F81FA" transform="translate(0,0)"/>
<path d="" fill="#357DEB" transform="translate(0,0)"/>
<path d="" fill="#337AEA" transform="translate(0,0)"/>
<path d="" fill="#3379E9" transform="translate(0,0)"/>
<path d="" fill="#2E7AEF" transform="translate(0,0)"/>
<path d="" fill="#2971EB" transform="translate(0,0)"/>
<path d="" fill="#2D75E9" transform="translate(0,0)"/>
<path d="" fill="#2E7AEB" transform="translate(0,0)"/>
<path d="" fill="#2F80FC" transform="translate(0,0)"/>
<path d="" fill="#307FF4" transform="translate(0,0)"/>
<path d="" fill="#307BEC" transform="translate(0,0)"/>
<path d="" fill="#307AF0" transform="translate(0,0)"/>
<path d="" fill="#307CF0" transform="translate(0,0)"/>
<path d="" fill="#317DF9" transform="translate(0,0)"/>
<path d="" fill="#2D7AF1" transform="translate(0,0)"/>
<path d="" fill="#3081F8" transform="translate(0,0)"/>
<path d="" fill="#3183F4" transform="translate(0,0)"/>
<path d="" fill="#3183F2" transform="translate(0,0)"/>
<path d="" fill="#367AE6" transform="translate(0,0)"/>
<path d="" fill="#2E7FF8" transform="translate(0,0)"/>
<path d="" fill="#3179EC" transform="translate(0,0)"/>
<path d="" fill="#317EF2" transform="translate(0,0)"/>
<path d="" fill="#367AE5" transform="translate(0,0)"/>
<path d="" fill="#2F7BF7" transform="translate(0,0)"/>
<path d="" fill="#3578E4" transform="translate(0,0)"/>
<path d="" fill="#307DF7" transform="translate(0,0)"/>
<path d="" fill="#3381F8" transform="translate(0,0)"/>
<path d="" fill="#307AF0" transform="translate(0,0)"/>
<path d="" fill="#3378E5" transform="translate(0,0)"/>
<path d="" fill="#2B7DF7" transform="translate(0,0)"/>
<path d="" fill="#3578E3" transform="translate(0,0)"/>
<path d="" fill="#317CEE" transform="translate(0,0)"/>
<path d="" fill="#2F78F0" transform="translate(0,0)"/>
<path d="" fill="#2F7EFA" transform="translate(0,0)"/>
<path d="" fill="#307BEE" transform="translate(0,0)"/>
<path d="" fill="#2D78EA" transform="translate(0,0)"/>
<path d="" fill="#3283F9" transform="translate(0,0)"/>
<path d="" fill="#3081FC" transform="translate(0,0)"/>
<path d="" fill="#2D7FF9" transform="translate(0,0)"/>
<path d="" fill="#317FFA" transform="translate(0,0)"/>
<path d="" fill="#2E7BF0" transform="translate(0,0)"/>
<path d="" fill="#307DEC" transform="translate(0,0)"/>
<path d="" fill="#3279E9" transform="translate(0,0)"/>
<path d="" fill="#3276EC" transform="translate(0,0)"/>
<path d="" fill="#317CEE" transform="translate(0,0)"/>
<path d="" fill="#2F7AEA" transform="translate(0,0)"/>
<path d="" fill="#2C7AF3" transform="translate(0,0)"/>
<path d="" fill="#2F78EA" transform="translate(0,0)"/>
<path d="" fill="#3079E9" transform="translate(0,0)"/>
<path d="" fill="#327AE9" transform="translate(0,0)"/>
<path d="" fill="#367CE7" transform="translate(0,0)"/>
<path d="" fill="#347CEC" transform="translate(0,0)"/>
<path d="" fill="#2F7AED" transform="translate(0,0)"/>
<path d="" fill="#317CEF" transform="translate(0,0)"/>
<path d="" fill="#307AE7" transform="translate(0,0)"/>
<path d="" fill="#367DE5" transform="translate(0,0)"/>
<path d="" fill="#317AE9" transform="translate(0,0)"/>
<path d="" fill="#337CEA" transform="translate(0,0)"/>
<path d="" fill="#377BE5" transform="translate(0,0)"/>
<path d="" fill="#317BEA" transform="translate(0,0)"/>
<path d="" fill="#307CE9" transform="translate(0,0)"/>
<path d="" fill="#3383FB" transform="translate(0,0)"/>
<path d="" fill="#2F79EC" transform="translate(0,0)"/>
<path d="" fill="#307FFB" transform="translate(0,0)"/>
<path d="" fill="#317BEC" transform="translate(0,0)"/>
<path d="" fill="#2E7FFA" transform="translate(0,0)"/>
<path d="" fill="#2F77E0" transform="translate(0,0)"/>
<path d="" fill="#397EE9" transform="translate(0,0)"/>
<path d="" fill="#2C7CF7" transform="translate(0,0)"/>
<path d="" fill="#337AE3" transform="translate(0,0)"/>
<path d="" fill="#387BE3" transform="translate(0,0)"/>
<path d="" fill="#367AE0" transform="translate(0,0)"/>
<path d="" fill="#3172CB" transform="translate(0,0)"/>
<path d="" fill="#317AE8" transform="translate(0,0)"/>
<path d="" fill="#2D7EF7" transform="translate(0,0)"/>
<path d="" fill="#357BE4" transform="translate(0,0)"/>
<path d="" fill="#2F78E4" transform="translate(0,0)"/>
<path d="" fill="#3175DB" transform="translate(0,0)"/>
<path d="" fill="#3179E7" transform="translate(0,0)"/>
<path d="" fill="#3177DC" transform="translate(0,0)"/>
<path d="" fill="#3076E5" transform="translate(0,0)"/>
<path d="" fill="#2F80F7" transform="translate(0,0)"/>
<path d="" fill="#2E7CF9" transform="translate(0,0)"/>
<path d="" fill="#2D7EF7" transform="translate(0,0)"/>
<path d="" fill="#3076DC" transform="translate(0,0)"/>
<path d="" fill="#2E7FFB" transform="translate(0,0)"/>
<path d="" fill="#2E7EFC" transform="translate(0,0)"/>
<path d="" fill="#3078E1" transform="translate(0,0)"/>
<path d="" fill="#327BE5" transform="translate(0,0)"/>
<path d="" fill="#3178E3" transform="translate(0,0)"/>
<path d="" fill="#3078E5" transform="translate(0,0)"/>
<path d="" fill="#2B7BF8" transform="translate(0,0)"/>
<path d="" fill="#2F81F9" transform="translate(0,0)"/>
<path d="" fill="#317FF7" transform="translate(0,0)"/>
<path d="" fill="#3180F7" transform="translate(0,0)"/>
<path d="" fill="#3778DF" transform="translate(0,0)"/>
<path d="" fill="#3077E3" transform="translate(0,0)"/>
<path d="" fill="#3277E3" transform="translate(0,0)"/>
<path d="" fill="#2D7DF9" transform="translate(0,0)"/>
<path d="" fill="#2C7EF8" transform="translate(0,0)"/>
<path d="" fill="#2E81F7" transform="translate(0,0)"/>
<path d="" fill="#2C7BF7" transform="translate(0,0)"/>
<path d="" fill="#2F7FF9" transform="translate(0,0)"/>
<path d="" fill="#2E7EF9" transform="translate(0,0)"/>
<path d="" fill="#3180FC" transform="translate(0,0)"/>
<path d="" fill="#357AE3" transform="translate(0,0)"/>
<path d="" fill="#3079E7" transform="translate(0,0)"/>
<path d="" fill="#357AE4" transform="translate(0,0)"/>
<path d="" fill="#3276E5" transform="translate(0,0)"/>
<path d="" fill="#3179E3" transform="translate(0,0)"/>
<path d="" fill="#3277E8" transform="translate(0,0)"/>
<path d="" fill="#3279E8" transform="translate(0,0)"/>
<path d="" fill="#347BE5" transform="translate(0,0)"/>
<path d="" fill="#317AE7" transform="translate(0,0)"/>
<path d="" fill="#337AE7" transform="translate(0,0)"/>
<path d="" fill="#3177E6" transform="translate(0,0)"/>
<path d="" fill="#327AE6" transform="translate(0,0)"/>
<path d="" fill="#3379E2" transform="translate(0,0)"/>
<path d="" fill="#317AE2" transform="translate(0,0)"/>
<path d="" fill="#337AE4" transform="translate(0,0)"/>
<path d="" fill="#3178E5" transform="translate(0,0)"/>
<path d="" fill="#3178E3" transform="translate(0,0)"/>
<path d="" fill="#2F79E0" transform="translate(0,0)"/>
<path d="" fill="#3077E1" transform="translate(0,0)"/>
<path d="" fill="#317BE4" transform="translate(0,0)"/>
<path d="" fill="#3379E1" transform="translate(0,0)"/>
</svg>
